<svg width="258" height="258" viewBox="0 0 258 258" fill="none" xmlns="http://www.w3.org/2000/svg">
<mask id="mask0_40_917" style="mask-type:alpha" maskUnits="userSpaceOnUse" x="0" y="0" width="258" height="258">
<circle cx="129" cy="129" r="129" fill="#4157FF"/>
</mask>
<g mask="url(#mask0_40_917)">
<path d="M115.977 267.337H-40.3348C-41.5593 267.335 -42.733 266.847 -43.5981 265.98C-44.4632 265.113 -44.9491 263.939 -44.9491 262.714V42.9847C-44.9384 41.7672 -44.4478 40.603 -43.5839 39.7451C-42.7199 38.8872 -41.5523 38.4049 -40.3348 38.4028H115.977C117.203 38.4028 118.378 38.8898 119.245 39.7566C120.112 40.6235 120.599 41.7992 120.599 43.0252V262.714C120.599 263.94 120.112 265.116 119.245 265.983C118.378 266.85 117.203 267.337 115.977 267.337ZM-40.3348 38.5647C-41.5057 38.5668 -42.6278 39.0334 -43.455 39.8621C-44.2821 40.6908 -44.7467 41.8138 -44.7467 42.9847V262.714C-44.7467 263.885 -44.2821 265.008 -43.455 265.837C-42.6278 266.666 -41.5057 267.132 -40.3348 267.134H115.977C117.148 267.132 118.271 266.666 119.1 265.837C119.928 265.009 120.395 263.886 120.397 262.714V42.9847C120.395 41.8131 119.928 40.6901 119.1 39.8616C118.271 39.0332 117.148 38.5668 115.977 38.5647H-40.3348Z" fill="#EBEBEB"/>
<path d="M291.086 267.337H134.766C133.541 267.335 132.366 266.847 131.5 265.981C130.634 265.114 130.146 263.94 130.144 262.714V42.9847C130.157 41.7664 130.649 40.6023 131.514 39.7446C132.379 38.887 133.548 38.4048 134.766 38.4028H291.086C292.302 38.407 293.467 38.8903 294.33 39.748C295.192 40.6057 295.681 41.7686 295.692 42.9847V262.714C295.692 263.938 295.207 265.111 294.344 265.977C293.48 266.844 292.309 267.333 291.086 267.337ZM134.766 38.5647C133.595 38.5668 132.472 39.0332 131.643 39.8616C130.815 40.6901 130.348 41.8131 130.346 42.9847V262.714C130.348 263.886 130.815 265.009 131.643 265.837C132.472 266.666 133.595 267.132 134.766 267.134H291.086C292.257 267.132 293.38 266.666 294.209 265.837C295.037 265.009 295.504 263.886 295.506 262.714V42.9847C295.504 41.8131 295.037 40.6901 294.209 39.8616C293.38 39.0332 292.257 38.5668 291.086 38.5647H134.766Z" fill="#EBEBEB"/>
<path d="M195.82 156.189H196.799V59.7986H195.82V156.189Z" fill="#EBEBEB"/>
<path opacity="0.3" d="M81.24 146.458C81.2396 134.976 77.9484 123.734 71.7564 114.064C65.5643 104.394 56.7306 96.7017 46.3017 91.8972C35.8727 87.0927 24.2852 85.3777 12.9117 86.9552C1.53807 88.5327 -9.14518 93.3367 -17.8729 100.798C-26.6005 108.26 -33.007 118.066 -36.3336 129.056C-39.6602 140.046 -39.7674 151.759 -36.6427 162.809C-33.518 173.858 -27.2922 183.78 -18.7027 191.4C-10.1131 199.02 0.480328 204.019 11.8231 205.805C11.1695 206.289 10.6853 206.967 10.4392 207.743C10.1931 208.518 10.1977 209.351 10.4523 210.124C10.7068 210.897 11.1985 211.57 11.8573 212.047C12.5161 212.524 13.3086 212.782 14.1222 212.783H15.7412L10.3579 303.45H31.8832L26.4998 212.783H28.1674C28.9828 212.785 29.778 212.529 30.4391 212.052C31.1002 211.575 31.5932 210.9 31.8475 210.126C32.1018 209.351 32.1044 208.516 31.8549 207.74C31.6054 206.963 31.1165 206.286 30.4584 205.805C44.6066 203.588 57.4977 196.39 66.8084 185.509C76.1191 174.628 81.2371 160.779 81.24 146.458ZM21.157 197.021C11.1549 197.02 1.378 194.052 -6.93749 188.494C-15.253 182.936 -21.7335 175.037 -25.5597 165.795C-29.3858 156.554 -30.3856 146.386 -28.4328 136.576C-26.4799 126.767 -21.662 117.757 -14.5884 110.685C-7.51478 103.614 1.4969 98.7989 11.307 96.8492C21.1172 94.8995 31.2852 95.9026 40.5253 99.7316C49.7653 103.561 57.6624 110.044 63.2179 118.361C68.7734 126.678 71.7378 136.456 71.7362 146.458C71.7362 153.1 70.4278 159.676 67.8857 165.812C65.3437 171.947 61.6178 177.522 56.9209 182.217C52.2239 186.913 46.648 190.637 40.5116 193.177C34.3751 195.717 27.7983 197.023 21.157 197.021Z" fill="#E6E6E6"/>
<path d="M210.076 237.311C202.224 227.751 205.98 211.261 215.322 208.249C224.664 205.238 231.367 197.151 234.418 189.493C237.47 181.835 249.913 166.365 264.808 163.96C279.703 161.556 278.845 158.14 293.854 153.938C308.862 149.737 322.187 164.114 304.507 169.206C286.827 174.298 299.464 197.11 280.934 205.756C262.404 214.402 263.035 224.804 261.327 236.623C259.619 248.442 227.424 258.44 210.076 237.311Z" fill="#EBEBEB"/>
<path d="M208.578 268.138L207.768 267.936C218.592 226.86 243.339 199.353 262.185 183.51C282.601 166.348 300.71 158.796 300.896 158.723L301.204 159.467C301.018 159.54 283.006 167.061 262.678 184.15C243.954 199.919 219.345 227.281 208.578 268.138Z" fill="#FAFAFA"/>
<path d="M200.369 266.827C189.845 236.737 196.418 201.255 203.801 176.791C211.897 149.899 223.789 127.791 228.087 124.982L228.532 125.653C221.295 130.43 181.272 209.844 201.146 266.576L200.369 266.827Z" fill="#FAFAFA"/>
<path d="M231.949 256.521H180.892L186.049 303.442H226.792L231.949 256.521Z" fill="#F5F5F5"/>
<path d="M58.339 89.4355C67.795 89.4355 75.4605 81.7699 75.4605 72.314C75.4605 62.8581 67.795 55.1925 58.339 55.1925C48.8831 55.1925 41.2175 62.8581 41.2175 72.314C41.2175 81.7699 48.8831 89.4355 58.339 89.4355Z" fill="#0F3759"/>
<path d="M63.3019 101.465C54.3971 99.4817 45.2657 99.2955 35.9885 100.137C34.4357 100.286 32.9664 100.909 31.7812 101.923C30.5961 102.938 29.7528 104.293 29.3665 105.804C27.2537 114.393 23.5865 133.765 24.1694 163.281L61.61 163.888C62.379 158.626 61.7719 134.227 68.0862 109.601C68.3346 108.752 68.4067 107.862 68.2978 106.984C68.189 106.107 67.9016 105.261 67.4534 104.498C67.0051 103.736 66.4055 103.074 65.6916 102.552C64.9776 102.03 64.1643 101.66 63.3019 101.465Z" fill="#0F3759"/>
<path d="M40.755 106.743L41.7426 109.536C41.7913 109.672 41.8756 109.793 41.9866 109.885C42.0976 109.978 42.2314 110.039 42.3741 110.062L43.7988 110.281C44.0564 110.318 44.319 110.266 44.5436 110.135L47.2555 108.516L44.4869 105.982L40.755 106.743Z" fill="#8388A0"/>
<path d="M43.9289 109.431C43.4045 109.214 42.8322 109.138 42.2694 109.212C40.6018 112.086 37.8737 120.489 37.1046 124.237C39.3875 131.911 40.4156 132.753 40.4156 132.753L43.7346 123.946C43.7346 123.946 43.2975 114.668 43.9289 109.431Z" fill="#8388A0"/>
<path d="M57.7983 82.7569C56.2845 87.7921 54.3497 97.0855 57.5716 100.769C54.5197 103.319 50.5773 106.241 44.4978 106.006C38.4182 105.772 39.8916 101.667 41.713 99.5869C47.5416 98.6479 47.8169 94.406 47.2259 90.3583L57.7983 82.7569Z" fill="#FFB573"/>
<path d="M59.1716 100.469C58.7668 100.241 58.3412 100.051 57.9007 99.9026C57.7918 99.8626 57.6729 99.8592 57.5619 99.8928C57.4509 99.9264 57.3539 99.9952 57.2854 100.089C56.573 101.02 54.2173 105.262 44.4868 106.006C45.9278 107.091 47.6359 110.175 48.3564 111.673C51.4002 110.475 59.3983 106.816 59.4388 100.963C59.4418 100.864 59.4187 100.767 59.3717 100.68C59.3248 100.593 59.2558 100.521 59.1716 100.469Z" fill="white"/>
<path d="M41.7358 99.8215C41.7659 99.736 41.7741 99.6443 41.7596 99.5547C41.7451 99.4652 41.7084 99.3807 41.6529 99.3091C41.5973 99.2374 41.5247 99.1808 41.4416 99.1445C41.3585 99.1081 41.2676 99.0932 41.1772 99.101C40.8396 99.1339 40.5043 99.188 40.1734 99.2629C40.0959 99.2835 40.0221 99.3163 39.9549 99.3601C39.1453 99.9672 34.4177 105.31 37.5263 110.337C38.522 109.163 41.5739 106.557 44.4882 106.006C41.9787 104.525 40.9506 102.137 41.7358 99.8215Z" fill="white"/>
<path opacity="0.2" d="M53.4908 85.8572L47.2332 90.3582C47.3882 91.3025 47.456 92.2591 47.4355 93.2158C49.6455 93.062 52.8675 90.8925 53.3289 88.6258C53.5474 87.72 53.6022 86.7824 53.4908 85.8572Z" fill="black"/>
<path d="M62.7493 76.3534C60.515 83.0563 59.5112 87.0796 55.2288 89.8401C48.7526 93.9849 41.2887 89.0792 41.5154 81.9553C41.7097 75.5358 45.3283 65.6434 52.614 64.3562C59.8997 63.0691 64.9755 69.6424 62.7493 76.3534Z" fill="#FFB573"/>
<path d="M60.184 81.065L56.193 79.4459C56.193 79.4459 60.9692 74.2083 61.2445 71.0349C53.8373 69.9016 43.5239 70.1202 47.7982 63.2068C50.6801 58.552 54.064 58.5601 60.3216 60.6892C70.5864 64.1863 69.2264 73.1478 66.9111 78.2559C64.5959 83.364 60.184 81.065 60.184 81.065Z" fill="#0F3759"/>
<path d="M62.0317 81.0406C61.9804 81.0391 61.9315 81.0189 61.894 80.9839C60.0197 79.2473 57.8181 77.9016 55.4178 77.0253C55.3653 77.007 55.3222 76.9685 55.2979 76.9185C55.2737 76.8684 55.2702 76.8108 55.2883 76.7582C55.2965 76.7325 55.3098 76.7087 55.3274 76.6882C55.3449 76.6677 55.3664 76.6509 55.3905 76.6389C55.4147 76.6268 55.441 76.6197 55.4679 76.6179C55.4949 76.6162 55.5219 76.6198 55.5474 76.6287C58.004 77.5248 60.2577 78.9007 62.1774 80.6763C62.215 80.7155 62.236 80.7677 62.236 80.822C62.236 80.8763 62.215 80.9285 62.1774 80.9677C62.14 81.0099 62.0878 81.036 62.0317 81.0406Z" fill="white"/>
<path d="M47.4266 82.9754C48.0448 83.1423 48.69 83.1853 49.3249 83.1019C49.9598 83.0186 50.572 82.8105 51.1261 82.4896C51.1607 82.4626 51.1851 82.4248 51.1954 82.3821C51.2057 82.3395 51.2013 82.2947 51.1828 82.2549C51.1512 82.2247 51.1092 82.2079 51.0654 82.2079C51.0217 82.2079 50.9797 82.2247 50.9481 82.2549C50.3343 82.5964 49.6508 82.7936 48.9495 82.8315C48.2481 82.8694 47.5474 82.7469 46.9004 82.4735C46.8584 82.4567 46.8116 82.4566 46.7695 82.4732C46.7274 82.4897 46.6932 82.5217 46.6738 82.5625C46.6643 82.5821 46.6589 82.6034 46.6579 82.6251C46.6569 82.6469 46.6602 82.6686 46.6678 82.689C46.6754 82.7094 46.6869 82.7281 46.7019 82.7439C46.7168 82.7597 46.7348 82.7724 46.7547 82.7811C46.9749 82.8582 47.1992 82.9231 47.4266 82.9754Z" fill="#0F3759"/>
<path d="M63.1304 84.2382C61.8819 85.5083 60.1982 86.2576 58.419 86.3349C56.0956 86.3916 55.618 84.1897 56.7999 82.2873C57.8928 80.5873 60.4266 78.4987 62.4666 79.3406C64.5066 80.1825 64.6685 82.6597 63.1304 84.2382Z" fill="#FFB573"/>
<path d="M44.0904 232.827C44.8999 197.588 53.74 163.742 53.74 163.742L24.4999 163.272C24.4999 163.272 26.2889 214.167 26.7989 235.49C27.3251 257.655 63.9643 307.991 63.9643 307.991L73.9943 301.361C73.9943 301.361 44.8757 260.642 44.0904 232.827Z" fill="#8388A0"/>
<g style="mix-blend-mode:multiply" opacity="0.2">
<path d="M46.7865 183.13C38.1084 194.536 41.1846 215.989 44.1312 231.143C44.7884 214.386 46.7261 197.705 49.9275 181.244L46.7865 183.13Z" fill="black"/>
</g>
<path d="M52.4127 75.722C52.2589 76.2725 51.8541 76.6611 51.4979 76.5801C51.1418 76.4992 50.9717 75.9973 51.1175 75.4387C51.2632 74.8801 51.676 74.4997 52.0322 74.5806C52.3884 74.6616 52.5584 75.1716 52.4127 75.722Z" fill="#0F3759"/>
<path d="M46.0843 74.5482C45.9386 75.0986 45.5257 75.4872 45.1695 75.4063C44.8133 75.3253 44.6514 74.8234 44.7972 74.2648C44.9429 73.7063 45.3557 73.3258 45.7119 73.4067C46.0681 73.4877 46.2381 74.022 46.0843 74.5482Z" fill="#0F3759"/>
<path d="M47.8165 75.1958C46.6827 76.5645 45.3766 77.7808 43.9308 78.8144C44.6432 79.7696 46.3998 79.7049 46.3998 79.7049L47.8165 75.1958Z" fill="#630F0F"/>
<path d="M54.9951 74.1919C55.0502 74.211 55.1101 74.211 55.1651 74.1919C55.2458 74.1562 55.3098 74.0912 55.3444 74.0101C55.379 73.9289 55.3814 73.8377 55.3513 73.7548C55.1658 73.2736 54.8626 72.8466 54.4695 72.5128C54.0763 72.1791 53.6058 71.9492 53.1008 71.8443C53.0124 71.8344 52.9234 71.8581 52.8515 71.9105C52.7796 71.9629 52.7299 72.0404 52.7123 72.1276C52.7016 72.1698 52.7 72.2138 52.7076 72.2566C52.7152 72.2994 52.7317 72.3402 52.7562 72.3761C52.7807 72.4121 52.8125 72.4424 52.8496 72.4652C52.8867 72.4879 52.9282 72.5026 52.9713 72.5081C53.3686 72.5927 53.7383 72.7756 54.0466 73.0401C54.3549 73.3046 54.592 73.6421 54.7361 74.0219C54.7589 74.0718 54.7953 74.1141 54.8411 74.1442C54.8869 74.1743 54.9403 74.1908 54.9951 74.1919Z" fill="#0F3759"/>
<path d="M43.6705 71.3506C43.7192 71.3761 43.7734 71.3895 43.8284 71.3895C43.8834 71.3895 43.9375 71.3761 43.9862 71.3506C44.3277 71.091 44.7251 70.9148 45.1468 70.8361C45.5684 70.7574 46.0027 70.7783 46.4148 70.8973C46.4998 70.9272 46.5931 70.9238 46.6757 70.8878C46.7583 70.8517 46.8242 70.7857 46.86 70.703C46.877 70.6638 46.8859 70.6215 46.8861 70.5788C46.8863 70.536 46.8778 70.4937 46.8612 70.4543C46.8445 70.415 46.82 70.3794 46.7892 70.3498C46.7584 70.3202 46.7219 70.2971 46.6819 70.282C46.1707 70.1276 45.6304 70.0956 45.1045 70.1884C44.5786 70.2812 44.0818 70.4963 43.6543 70.8163C43.6175 70.8401 43.5857 70.8709 43.5609 70.907C43.536 70.9432 43.5186 70.9839 43.5096 71.0268C43.5005 71.0697 43.5001 71.1139 43.5083 71.157C43.5164 71.2001 43.5331 71.2411 43.5572 71.2777C43.5876 71.3119 43.6268 71.3371 43.6705 71.3506Z" fill="#0F3759"/>
<path d="M64.1669 232.341C63.7622 200.77 65.786 176.152 61.6412 163.871L36.9021 163.475C36.9021 163.475 45.5964 212.702 48.0493 233.863C50.5912 255.858 54.7764 307.627 54.7764 307.627L66.0693 307.781C66.0693 307.781 68.7812 256.975 64.1669 232.341Z" fill="#8388A0"/>
<path d="M58.0962 100.51C54.0081 105.618 43.2657 112.653 40.4243 124.925C37.3319 112.701 41.509 99.5869 41.509 99.5869C39.2262 99.4169 34.4905 99.2064 31.1633 100.137C30.1025 100.443 29.1449 101.032 28.3933 101.84C27.6417 102.649 27.1244 103.647 26.8971 104.727C24.2387 118.089 22.8938 131.678 22.8819 145.301C22.8171 171.003 20.7042 210.783 20.7042 210.783C20.7042 210.783 46.7386 212.305 67.2682 210.095C67.3572 190.448 63.2691 157.096 64.3296 148.377C65.6977 137.165 68.8144 115.276 70.3606 106.168C70.5999 104.903 70.366 103.594 69.7033 102.489C69.0407 101.385 67.9955 100.562 66.7663 100.178C64.3866 99.5759 61.9144 99.4303 59.4805 99.7488C58.937 99.8106 58.4397 100.084 58.0962 100.51Z" fill="#8388A0"/>
<path opacity="0.7" d="M58.0882 100.51C54 105.626 43.2576 112.653 40.4243 124.925C37.3319 112.701 41.509 99.5869 41.509 99.5869C39.2262 99.4169 34.4905 99.2064 31.1633 100.137C30.1025 100.443 29.1449 101.032 28.3933 101.84C27.6417 102.649 27.1244 103.647 26.8971 104.727C24.2387 118.089 22.8938 131.678 22.8819 145.301C22.8171 171.003 20.7042 210.783 20.7042 210.783C20.7042 210.783 46.7386 212.305 67.2682 210.095C67.3572 190.448 63.2691 157.096 64.3296 148.377C65.6977 137.157 68.8144 115.267 70.3606 106.168C70.6088 104.944 70.4053 103.671 69.7878 102.584C69.1702 101.498 68.1803 100.672 67.001 100.259C64.5532 99.6055 62.0016 99.435 59.4886 99.7569C58.9408 99.8134 58.4375 100.084 58.0882 100.51Z" fill="white"/>
<path opacity="0.5" d="M39.0715 208.403C37.841 183.405 39.6868 131.086 39.9863 126.407H40.4234C40.1239 131.078 38.2782 183.365 39.5086 208.355L39.0715 208.403Z" fill="#8388A0"/>
<path d="M38.3678 108.832C35.7854 113.349 33.3082 118.125 31.082 122.845C29.9649 125.217 28.9206 127.597 28.022 129.952C27.5687 131.126 27.1639 132.292 26.8158 133.409C26.5048 134.371 26.272 135.356 26.1196 136.356V136.421C26.1299 136.305 26.1299 136.188 26.1196 136.072C26.1078 135.8 26.0753 135.53 26.0225 135.263C25.9531 134.986 25.8611 134.715 25.7472 134.453C25.6395 134.222 25.5122 134 25.3668 133.79C25.098 133.385 24.7374 133.049 24.3144 132.81C24.0553 132.697 24.3791 132.859 24.7515 132.923C25.784 133.131 26.8318 133.253 27.8844 133.288C30.3989 133.392 32.9171 133.368 35.4292 133.215C38.0116 133.053 40.6344 132.818 43.2492 132.535C44.5606 132.389 45.8721 132.219 47.1754 132.041L49.1345 131.774L50.1059 131.62L50.5916 131.547L50.8264 131.507H50.9478H51.0207H50.8992L50.6645 131.555L53.0121 142.346L52.7449 142.395H52.5911H52.4859H52.3483H52.0811L51.563 142.451L50.5268 142.565L48.4626 142.783L44.3421 143.18C41.5816 143.439 38.8211 143.658 36.012 143.795C33.203 143.933 30.3454 144.062 27.3663 143.933C25.7185 143.881 24.0778 143.694 22.4606 143.374C21.2818 143.141 20.1423 142.74 19.0768 142.184C18.0491 141.64 17.1622 140.864 16.4863 139.918C15.9706 139.189 15.6097 138.363 15.4258 137.489C15.325 137.048 15.2734 136.598 15.272 136.145C15.272 135.951 15.272 135.66 15.272 135.538V135.36C15.4422 133.664 15.7674 131.986 16.2434 130.349C16.6563 128.876 17.1096 127.483 17.5872 126.123C18.5587 123.411 19.5948 120.813 20.6634 118.239C21.732 115.664 22.8653 113.147 23.9987 110.637C25.132 108.128 26.2977 105.659 27.512 103.1L38.3678 108.832Z" fill="#8388A0"/>
<g opacity="0.7">
<path opacity="0.7" d="M38.3678 108.832C35.7854 113.349 33.3082 118.125 31.082 122.845C29.9649 125.217 28.9206 127.597 28.022 129.952C27.5687 131.126 27.1639 132.292 26.8158 133.409C26.5048 134.371 26.272 135.356 26.1196 136.356V136.421C26.1299 136.305 26.1299 136.188 26.1196 136.072C26.1078 135.8 26.0753 135.53 26.0225 135.263C25.9531 134.986 25.8611 134.715 25.7472 134.453C25.6395 134.222 25.5122 134 25.3668 133.79C25.098 133.385 24.7374 133.049 24.3144 132.81C24.0553 132.697 24.3791 132.859 24.7515 132.923C25.784 133.131 26.8318 133.253 27.8844 133.288C30.3989 133.392 32.9171 133.368 35.4292 133.215C38.0116 133.053 40.6344 132.818 43.2492 132.535C44.5606 132.389 45.8721 132.219 47.1754 132.041L49.1345 131.774L50.1059 131.62L50.5916 131.547L50.8264 131.507H50.9478H51.0207H50.8992L50.6645 131.555L53.0121 142.346L52.7449 142.395H52.5911H52.4859H52.3483H52.0811L51.563 142.451L50.5268 142.565L48.4626 142.783L44.3421 143.18C41.5816 143.439 38.8211 143.658 36.012 143.795C33.203 143.933 30.3454 144.062 27.3663 143.933C25.7185 143.881 24.0778 143.694 22.4606 143.374C21.2818 143.141 20.1423 142.74 19.0768 142.184C18.0491 141.64 17.1622 140.864 16.4863 139.918C15.9706 139.189 15.6097 138.363 15.4258 137.489C15.325 137.048 15.2734 136.598 15.272 136.145C15.272 135.951 15.272 135.66 15.272 135.538V135.36C15.4422 133.664 15.7674 131.986 16.2434 130.349C16.6563 128.876 17.1096 127.483 17.5872 126.123C18.5587 123.411 19.5948 120.813 20.6634 118.239C21.732 115.664 22.8653 113.147 23.9987 110.637C25.132 108.128 26.2977 105.659 27.512 103.1L38.3678 108.832Z" fill="white"/>
</g>
<path d="M31.0737 132.583L25.7875 127.532L22.1932 135.044C22.1932 135.044 27.4875 139.092 29.8837 136.663L31.0737 132.583Z" fill="#FFB573"/>
<path d="M50.4047 135.157L55.2618 129.677L59.4552 136.882C59.4552 136.882 54.5171 141.334 51.9428 139.148L50.4047 135.157Z" fill="#FFB573"/>
<path d="M62.5481 129.021L63.5843 131.83C63.7815 132.391 63.7832 133.001 63.5892 133.563C63.3951 134.124 63.0168 134.604 62.5157 134.923L59.4719 136.882L55.2786 129.677L59.3748 127.766C59.6628 127.622 59.9779 127.541 60.2996 127.527C60.6212 127.513 60.9422 127.567 61.2417 127.685C61.5411 127.804 61.8122 127.984 62.0373 128.214C62.2624 128.444 62.4365 128.719 62.5481 129.021Z" fill="#FFB573"/>
<path d="M18.4791 127.451L17.6696 130.325C17.5216 130.899 17.5722 131.507 17.8132 132.049C18.0542 132.592 18.4715 133.036 18.9972 133.312L22.2353 135.02L25.8296 127.507L21.5796 125.937C21.2784 125.81 20.9536 125.749 20.6269 125.758C20.3002 125.767 19.9793 125.846 19.6856 125.99C19.3919 126.133 19.1323 126.338 18.9242 126.59C18.7161 126.842 18.5644 127.135 18.4791 127.451Z" fill="#FFB573"/>
<path d="M70.3691 104.995C70.6605 106.565 70.8871 107.966 71.1219 109.447C71.3567 110.928 71.5591 112.378 71.7372 113.851C72.1176 116.798 72.4333 119.76 72.5872 122.812C72.7873 125.997 72.7197 129.192 72.3848 132.365C72.1749 134.311 71.6926 136.219 70.9519 138.031C70.7205 138.589 70.4499 139.13 70.1424 139.65C69.9481 139.942 69.7781 140.217 69.5433 140.517L69.3733 140.735C69.3068 140.829 69.2338 140.919 69.1548 141.002C68.9311 141.261 68.6904 141.504 68.4343 141.731C67.7111 142.35 66.8905 142.845 66.0057 143.196C65.4215 143.434 64.8209 143.628 64.2086 143.779C62.4448 144.167 60.6469 144.378 58.8414 144.41C57.2223 144.459 55.6923 144.41 54.1785 144.362C51.1509 144.24 48.2204 143.949 45.2737 143.658C42.3271 143.366 39.4775 142.994 36.6037 142.589C33.7299 142.184 30.8965 141.78 27.9661 141.318L29.9656 130.454C32.6289 131.005 35.4218 131.474 38.1661 131.919C40.9104 132.365 43.679 132.729 46.4233 133.029C49.1676 133.328 51.9038 133.547 54.5671 133.66C55.8866 133.7 57.1981 133.717 58.4285 133.66C59.4685 133.642 60.5041 133.523 61.5209 133.304C61.6505 133.304 61.7881 133.215 61.7476 133.215C61.5405 133.312 61.3494 133.44 61.1809 133.595C61.055 133.701 60.9385 133.817 60.8328 133.943C60.76 134.04 60.8328 133.992 60.7762 134.008C60.7762 134.008 60.8328 133.887 60.8814 133.749C61.1652 132.894 61.3419 132.008 61.4076 131.11C61.5993 128.616 61.5586 126.109 61.2862 123.622C61.0352 120.991 60.6466 118.311 60.169 115.632C59.9181 114.296 59.6428 112.96 59.3595 111.625C59.0762 110.289 58.7443 108.921 58.4204 107.715L70.3691 104.995Z" fill="#8388A0"/>
<g opacity="0.7">
<path opacity="0.7" d="M70.3691 104.995C70.6605 106.565 70.8871 107.966 71.1219 109.447C71.3567 110.928 71.5591 112.378 71.7372 113.851C72.1176 116.798 72.4333 119.76 72.5872 122.812C72.7873 125.997 72.7197 129.192 72.3848 132.365C72.1749 134.311 71.6926 136.219 70.9519 138.031C70.7205 138.589 70.4499 139.13 70.1424 139.65C69.9481 139.942 69.7781 140.217 69.5433 140.517L69.3733 140.735C69.3068 140.829 69.2338 140.919 69.1548 141.002C68.9311 141.261 68.6904 141.504 68.4343 141.731C67.7111 142.35 66.8905 142.845 66.0057 143.196C65.4215 143.434 64.8209 143.628 64.2086 143.779C62.4448 144.167 60.6469 144.378 58.8414 144.41C57.2223 144.459 55.6923 144.41 54.1785 144.362C51.1509 144.24 48.2204 143.949 45.2737 143.658C42.3271 143.366 39.4775 142.994 36.6037 142.589C33.7299 142.184 30.8965 141.78 27.9661 141.318L29.9656 130.454C32.6289 131.005 35.4218 131.474 38.1661 131.919C40.9104 132.365 43.679 132.729 46.4233 133.029C49.1676 133.328 51.9038 133.547 54.5671 133.66C55.8866 133.7 57.1981 133.717 58.4285 133.66C59.4685 133.642 60.5041 133.523 61.5209 133.304C61.6505 133.304 61.7881 133.215 61.7476 133.215C61.5405 133.312 61.3494 133.44 61.1809 133.595C61.055 133.701 60.9385 133.817 60.8328 133.943C60.76 134.04 60.8328 133.992 60.7762 134.008C60.7762 134.008 60.8328 133.887 60.8814 133.749C61.1652 132.894 61.3419 132.008 61.4076 131.11C61.5993 128.616 61.5586 126.109 61.2862 123.622C61.0352 120.991 60.6466 118.311 60.169 115.632C59.9181 114.296 59.6428 112.96 59.3595 111.625C59.0762 110.289 58.7443 108.921 58.4204 107.715L70.3691 104.995Z" fill="white"/>
</g>
<path d="M52.0743 162.787L64.2172 171.635C64.2172 171.635 65.5934 183.519 58.7691 184.684C51.9448 185.85 50.6009 171.351 52.0743 162.787Z" fill="#8388A0"/>
<path opacity="0.5" d="M52.0743 162.787L64.2172 171.635C64.2172 171.635 65.5934 183.519 58.7691 184.684C51.9448 185.85 50.6009 171.351 52.0743 162.787Z" fill="white"/>
<path d="M25.796 162.787L21.3517 171.635C21.3517 171.635 19.935 183.519 21.9265 184.684C23.9179 185.85 25.5289 171.351 25.796 162.787Z" fill="#8388A0"/>
<path opacity="0.5" d="M25.796 162.787L21.3517 171.635C21.3517 171.635 19.935 183.519 21.9265 184.684C23.9179 185.85 25.5289 171.351 25.796 162.787Z" fill="white"/>
<path d="M43.1198 78.45C42.9728 78.4499 42.8262 78.4336 42.6827 78.4015C42.4001 78.3313 42.1356 78.202 41.9067 78.0219C41.6778 77.8419 41.4898 77.6153 41.3551 77.3572C41.0507 76.6801 40.8839 75.9492 40.8645 75.2071C40.845 74.465 40.9733 73.7264 41.2417 73.0343C42.0513 70.4519 44.067 68.6548 45.686 68.9867C45.9681 69.0582 46.2319 69.1881 46.4606 69.368C46.6893 69.5479 46.8777 69.7737 47.0137 70.031C47.318 70.7081 47.4848 71.4389 47.5043 72.181C47.5237 72.9231 47.3955 73.6617 47.127 74.3538C46.358 76.75 44.6418 78.45 43.1198 78.45ZM45.2408 69.1648C43.8079 69.1648 42.1646 70.7838 41.436 73.0748C40.9021 74.4233 40.9254 75.9287 41.5008 77.26C41.6222 77.4936 41.7917 77.6988 41.9983 77.8621C42.2048 78.0254 42.4436 78.143 42.6989 78.2072C44.2208 78.5634 46.0989 76.8229 46.9003 74.3457C47.4129 72.9987 47.3751 71.5041 46.7951 70.1848C46.6763 69.9508 46.5085 69.7451 46.3032 69.5817C46.0979 69.4183 45.8598 69.3009 45.6051 69.2376C45.4869 69.1994 45.3646 69.175 45.2408 69.1648Z" fill="white"/>
<path d="M51.7408 80.3121C51.5368 80.3106 51.3334 80.2889 51.1337 80.2473C50.6414 80.1141 50.1876 79.8664 49.8092 79.5246C49.4308 79.1827 49.1385 78.7564 48.9561 78.2802C48.4903 77.1487 48.3968 75.8983 48.6889 74.7101C49.2799 72.1035 51.3442 70.3468 53.287 70.7839C53.7793 70.9172 54.2331 71.1648 54.6115 71.5067C54.9899 71.8485 55.2822 72.2749 55.4646 72.7511C55.9264 73.8807 56.0199 75.1272 55.7318 76.313C55.1975 78.6525 53.4813 80.3121 51.7408 80.3121ZM52.6799 70.9216C51.0608 70.9216 49.4013 72.5406 48.8913 74.7587C48.6104 75.9034 48.6982 77.1075 49.1422 78.1992C49.3106 78.6471 49.5836 79.0483 49.9385 79.3694C50.2933 79.6904 50.7198 79.9221 51.1823 80.0449C53.0037 80.4659 54.9546 78.7659 55.5294 76.2725C55.8103 75.1279 55.7225 73.9238 55.2785 72.832C55.1089 72.3848 54.8355 71.9843 54.4809 71.6634C54.1262 71.3425 53.7004 71.1104 53.2384 70.9863C53.0551 70.9448 52.8678 70.9231 52.6799 70.9216Z" fill="white"/>
<path d="M48.648 75.9325C48.5976 75.9348 48.5482 75.9174 48.5104 75.8839C48.2852 75.666 48.0145 75.5007 47.7177 75.3999C47.421 75.2991 47.1056 75.2654 46.7942 75.301C46.7405 75.3118 46.6848 75.3007 46.6393 75.2704C46.5937 75.24 46.5621 75.1928 46.5514 75.1391C46.5406 75.0855 46.5517 75.0297 46.582 74.9842C46.6124 74.9386 46.6596 74.907 46.7133 74.8963C47.0863 74.8476 47.4655 74.8835 47.8229 75.0012C48.1802 75.1189 48.5065 75.3154 48.7776 75.5763C48.7972 75.5951 48.8127 75.6178 48.8234 75.6428C48.834 75.6679 48.8395 75.6948 48.8395 75.722C48.8395 75.7492 48.834 75.7761 48.8234 75.8012C48.8127 75.8262 48.7972 75.8488 48.7776 75.8677C48.743 75.9034 48.6973 75.9262 48.648 75.9325Z" fill="white"/>
<path d="M50.9159 128.26L50.4706 127.265C57.3678 124.221 61.9011 118.068 61.1968 114.806C60.8245 113.082 59.0111 112.717 57.5297 112.742C50.4139 112.807 48.0339 119.849 46.1154 125.516C45.8725 126.245 45.6296 126.941 45.3949 127.588L44.3749 127.216C44.6015 126.577 44.8363 125.888 45.0873 125.168C47.0058 119.501 49.6368 111.722 57.5216 111.657H57.6106C61.1078 111.657 62.0306 113.478 62.2654 114.571C63.0668 118.279 58.3878 124.925 50.9159 128.26Z" fill="#0F3759"/>
<path d="M49.2074 127.054C48.6569 128.252 48.8836 129.523 49.7012 129.896C50.5188 130.268 51.636 129.604 52.1784 128.406C52.7208 127.208 52.5022 125.937 51.6846 125.565C50.8669 125.192 49.7498 125.832 49.2074 127.054Z" fill="#0F3759"/>
<path d="M43.0479 127.054C42.4974 128.252 42.7241 129.523 43.5417 129.896C44.3593 130.268 45.4764 129.604 46.0188 128.406C46.5612 127.208 46.3507 125.937 45.525 125.565C44.6993 125.192 43.5983 125.832 43.0479 127.054Z" fill="#0F3759"/>
<path d="M32.8011 115.187C32.9434 113.673 31.8607 112.334 30.3829 112.195C28.9051 112.056 27.5917 113.17 27.4495 114.684C27.3072 116.197 28.3899 117.537 29.8677 117.675C31.3455 117.814 32.6589 116.7 32.8011 115.187Z" fill="#0F3759"/>
<path d="M58.056 112.734C57.9917 112.745 57.926 112.745 57.8617 112.734C57.7945 112.708 57.7329 112.67 57.6805 112.621C57.6281 112.572 57.5861 112.513 57.5567 112.447C57.5273 112.382 57.5112 112.311 57.5094 112.239C57.5076 112.168 57.52 112.096 57.546 112.029C57.546 111.989 59.2703 107.318 56.5584 100.315C56.5323 100.249 56.5196 100.178 56.521 100.107C56.5223 100.035 56.5377 99.965 56.5663 99.8996C56.5949 99.8342 56.636 99.7751 56.6875 99.7256C56.7389 99.6761 56.7995 99.6372 56.866 99.6112C56.9324 99.5851 57.0033 99.5724 57.0747 99.5738C57.146 99.5752 57.2164 99.5906 57.2818 99.6191C57.3472 99.6477 57.4064 99.6889 57.4559 99.7403C57.5053 99.7917 57.5442 99.8524 57.5703 99.9188C60.4522 107.342 58.6388 112.216 58.5579 112.418C58.5148 112.514 58.4441 112.596 58.3547 112.652C58.2654 112.708 58.1615 112.736 58.056 112.734Z" fill="#0F3759"/>
<path d="M29.0737 114.652H28.9604C28.8203 114.619 28.6983 114.533 28.6199 114.413C28.5415 114.292 28.5126 114.146 28.5394 114.004C28.6446 113.494 31.2756 101.441 41.3866 99.0606C41.5272 99.0284 41.6749 99.0534 41.7971 99.13C41.9193 99.2067 42.006 99.3288 42.0383 99.4694C42.0705 99.61 42.0455 99.7577 41.9688 99.8799C41.8922 100.002 41.7701 100.089 41.6295 100.121C32.1985 102.347 29.6323 114.11 29.608 114.223C29.5805 114.344 29.5128 114.453 29.4157 114.531C29.3187 114.609 29.1981 114.651 29.0737 114.652Z" fill="#0F3759"/>
<path d="M141.404 91.4913C131.851 89.3865 122.153 89.1841 112.31 90.0827C110.674 90.2338 109.13 90.9 107.897 91.9852C106.665 93.0705 105.809 94.5189 105.453 96.1218C103.478 105.253 100.199 125.848 101.753 157.217L141.598 157.864C142.246 152.262 140.789 126.293 146.787 100.129C147.01 99.2079 147.047 98.2517 146.896 97.3163C146.745 96.3808 146.409 95.4849 145.908 94.6807C145.406 93.8765 144.75 93.1803 143.977 92.6327C143.203 92.0851 142.329 91.6971 141.404 91.4913Z" fill="#00A69B"/>
<path d="M117.595 97.1013L118.729 100.08C118.786 100.226 118.88 100.354 119.003 100.452C119.125 100.55 119.27 100.615 119.425 100.639L120.939 100.866C121.218 100.917 121.507 100.862 121.748 100.712L124.573 99.0199L121.562 96.3242L117.595 97.1013Z" fill="#0F3759"/>
<path d="M121.075 99.9669C120.518 99.7359 119.909 99.655 119.311 99.7322C117.619 102.792 114.988 111.729 114.292 115.712C116.963 123.872 118.088 124.763 118.088 124.763L121.326 115.405C121.326 115.405 120.549 105.536 121.075 99.9669Z" fill="#0F3759"/>
<path d="M134.952 71.5934C133.503 76.9524 131.714 86.8367 135.284 90.7468C132.127 93.4587 127.998 96.5672 121.522 96.3163C115.046 96.0653 116.487 91.702 118.357 89.4839C124.525 88.4882 124.687 83.9791 123.926 79.6805L134.952 71.5934Z" fill="#FFB573"/>
<path d="M137.023 90.4388C136.585 90.1927 136.124 89.9894 135.647 89.8317C135.533 89.7902 135.408 89.7867 135.291 89.8217C135.175 89.8567 135.072 89.9283 135 90.026C134.271 91.0217 131.907 95.5308 121.586 96.3241C123.148 97.4736 125.059 100.76 125.876 102.323C129.074 101.052 137.461 97.1255 137.315 90.9407C137.314 90.8391 137.286 90.7395 137.235 90.6515C137.184 90.5636 137.111 90.4904 137.023 90.4388Z" fill="white"/>
<path d="M118.405 89.751C118.444 89.6559 118.457 89.5524 118.444 89.4507C118.43 89.349 118.39 89.2526 118.328 89.1709C118.266 89.0892 118.184 89.0251 118.09 88.9849C117.995 88.9446 117.892 88.9297 117.79 88.9414C117.433 88.9759 117.079 89.0326 116.73 89.1114C116.648 89.1332 116.572 89.1688 116.503 89.2167C115.693 89.8562 110.836 95.5472 114.269 100.89C115.289 99.6434 118.43 96.8424 121.554 96.2838C118.818 94.7457 117.652 92.2119 118.405 89.751Z" fill="white"/>
<path opacity="0.2" d="M130.468 74.896L123.991 79.6803C124.184 80.681 124.287 81.6969 124.299 82.716C126.639 82.5541 129.966 80.2874 130.419 77.8588C130.619 76.8828 130.636 75.878 130.468 74.896Z" fill="black"/>
<path d="M121.699 68.355C117.911 69.5855 117.328 66.5983 118.105 63.6597C118.583 61.8302 117.919 60.6645 117.66 58.6568C117.215 55.3621 118.04 52.4478 124.185 50.3106C132.15 47.5339 130.394 52.213 130.709 54.1478C131.025 56.0825 127.714 57.2483 127.876 59.2397C128.008 61.2297 127.472 63.2068 126.353 64.8579C125.234 66.5089 123.596 67.7396 121.699 68.355Z" fill="#0F3759"/>
<path d="M140.019 64.785C137.858 71.9169 136.951 76.1993 132.442 79.1298C125.691 83.5417 117.595 78.3284 117.595 70.7836C117.595 63.9593 121.133 53.4354 128.832 52.0673C130.511 51.7502 132.244 51.8758 133.86 52.4318C135.477 52.9878 136.92 53.9551 138.049 55.2384C139.178 56.5217 139.953 58.0768 140.299 59.7507C140.644 61.4246 140.548 63.1596 140.019 64.785Z" fill="#FFB573"/>
<path d="M137.833 57.4102C133.988 56.7302 129.439 58.3654 125.602 57.4102C122.558 56.6007 122.59 54.6011 123.035 52.553C123.691 49.5335 126.201 48.5459 127.706 47.9873C129.212 47.4287 129.989 49.3068 132.07 47.874C133.47 46.9025 138.813 46.6597 141.978 47.874C145.144 49.0883 141.525 51.3792 143.217 52.4397C148.446 55.6778 145.119 58.6974 137.833 57.4102Z" fill="#0F3759"/>
<path opacity="0.3" d="M125.804 56.5845C124.444 53.484 125.877 49.3393 131.592 48.9426C126.581 50.4483 125.804 56.5845 125.804 56.5845Z" fill="white"/>
<path d="M136.758 72.006C133.52 71.496 133.707 67.8369 135.285 65.3031C136.791 62.8745 134.573 60.2517 134.411 58.4141C134.249 56.5764 135.965 54.7064 139.268 54.8602C142.571 55.014 147.817 57.1107 147.906 59.5312C147.995 61.9517 144.611 61.6522 145.137 63.9917C146.295 69.205 141.478 72.7589 136.758 72.006Z" fill="#0F3759"/>
<path opacity="0.3" d="M143.5 59.3694C142.132 61.798 139.291 62.3242 135.607 59.3694C136.852 59.914 138.196 60.1951 139.554 60.1951C140.912 60.1951 142.256 59.914 143.5 59.3694Z" fill="white"/>
<path d="M119.037 70.565C117.555 72.1274 117.685 75.2684 117.766 76.7741C117.847 78.2798 119.126 80.7569 123.861 81.4693C128.597 82.1817 129.706 80.506 129.933 78.9193C130.159 77.3326 129.933 72.8236 128.403 71.3179C126.873 69.8121 120.712 68.7921 119.037 70.565Z" fill="#0F3759"/>
<path d="M122.121 72.8479C122.775 73.0279 123.459 73.0748 124.132 72.9858C124.805 72.8968 125.454 72.6738 126.039 72.3298C126.069 72.3008 126.087 72.2622 126.092 72.2209C126.096 72.1795 126.086 72.1379 126.063 72.1032C126.04 72.0686 126.005 72.0432 125.965 72.0313C125.926 72.0194 125.883 72.0219 125.845 72.0383C125.191 72.4091 124.461 72.6232 123.711 72.664C122.961 72.7047 122.211 72.5709 121.522 72.2731C121.479 72.2539 121.43 72.2525 121.386 72.2692C121.342 72.2859 121.306 72.3193 121.287 72.3622C121.268 72.4051 121.266 72.4539 121.283 72.4979C121.3 72.5419 121.333 72.5775 121.376 72.5969C121.619 72.6962 121.867 72.78 122.121 72.8479Z" fill="#FFB573"/>
<path d="M140.675 73.2122C139.377 74.5666 137.603 75.3622 135.729 75.4303C133.3 75.5032 132.685 73.1556 133.915 71.1398C135.032 69.3265 137.655 67.0922 139.865 68.007C142.075 68.9217 142.261 71.496 140.675 73.2122Z" fill="#FFB573"/>
<path d="M122.348 231.199C123.319 193.718 132.871 157.727 132.871 157.727L101.81 157.225C101.81 157.225 103.542 211.35 104.012 234.025C104.506 257.598 111.872 312.945 111.872 312.945L124.485 313.14C124.485 313.14 123.084 260.771 122.348 231.199Z" fill="#0F3759"/>
<path opacity="0.2" d="M125.375 178.345C116.106 190.488 119.32 213.284 122.396 229.402C123.068 209.366 126.096 189.913 128.727 176.338L125.375 178.345Z" fill="black"/>
<path d="M129.002 64.1132C128.856 64.7042 128.435 65.117 128.055 65.0361C127.675 64.9551 127.472 64.4127 127.618 63.8218C127.764 63.2308 128.176 62.818 128.557 62.8989C128.937 62.9799 129.14 63.498 129.002 64.1132Z" fill="#0F3759"/>
<path d="M122.234 62.8666C122.096 63.4576 121.675 63.8623 121.287 63.7814C120.898 63.7004 120.712 63.158 120.85 62.5671C120.987 61.9761 121.416 61.5714 121.797 61.6523C122.177 61.7333 122.372 62.2757 122.234 62.8666Z" fill="#0F3759"/>
<path d="M124.072 63.7975C122.899 65.2526 121.538 66.5456 120.024 67.6428C120.834 68.6628 122.68 68.5899 122.68 68.5899L124.072 63.7975Z" fill="#FF5652"/>
<path d="M131.884 61.7575C131.943 61.7722 132.004 61.7722 132.062 61.7575C132.148 61.7186 132.215 61.6474 132.248 61.5594C132.281 61.4714 132.279 61.3738 132.24 61.2879C132.031 60.778 131.701 60.3269 131.278 59.9742C130.854 59.6214 130.351 59.3776 129.812 59.2641C129.718 59.2502 129.623 59.2739 129.547 59.3301C129.471 59.3863 129.421 59.4703 129.407 59.5636C129.399 59.6084 129.4 59.6542 129.41 59.6986C129.42 59.7429 129.438 59.7848 129.465 59.8218C129.491 59.8588 129.525 59.8901 129.564 59.9139C129.602 59.9377 129.645 59.9535 129.69 59.9603C130.118 60.0544 130.517 60.2508 130.853 60.5328C131.188 60.8148 131.451 61.1739 131.617 61.5794C131.644 61.6283 131.682 61.6701 131.729 61.7011C131.775 61.732 131.829 61.7514 131.884 61.7575Z" fill="#0F3759"/>
<path d="M120.332 59.6444C120.39 59.6549 120.449 59.6516 120.505 59.6347C120.562 59.6178 120.613 59.5879 120.656 59.5473C120.96 59.2166 121.34 58.9638 121.762 58.8103C122.185 58.6567 122.638 58.6069 123.084 58.6649C123.177 58.6796 123.272 58.6586 123.35 58.606C123.429 58.5534 123.484 58.4732 123.505 58.3815C123.524 58.2914 123.507 58.1973 123.457 58.1199C123.407 58.0425 123.328 57.9881 123.238 57.9687C122.679 57.8951 122.111 57.9542 121.579 58.1413C121.048 58.3283 120.568 58.6381 120.178 59.0454C120.112 59.1121 120.075 59.2023 120.075 59.2963C120.075 59.3903 120.112 59.4805 120.178 59.5473C120.221 59.5914 120.274 59.6246 120.332 59.6444Z" fill="#0F3759"/>
<path d="M148.358 230.26C145.265 196.762 146.423 170.914 141.598 157.864L115.272 157.443C115.272 157.443 126.978 210.403 131.366 232.729C135.915 255.93 144.197 310.752 144.197 310.752L156.21 310.922C156.21 310.922 155.368 256.165 148.358 230.26Z" fill="#0F3759"/>
<path d="M87.5215 160.787L83.1986 167.117L91.7553 169.732C91.7553 169.732 94.9934 163.547 92.0467 161.402L87.5215 160.787Z" fill="#FFB573"/>
<path d="M84.5012 174.808L87.6745 175.213C88.2962 175.284 88.9236 175.139 89.4503 174.801C89.977 174.463 90.3707 173.954 90.5646 173.359L91.7546 169.732L83.1979 167.117L82.3883 171.829C82.3234 172.164 82.3272 172.509 82.3993 172.842C82.4714 173.176 82.6104 173.492 82.8078 173.77C83.0053 174.048 83.2572 174.284 83.5482 174.462C83.8393 174.641 84.1635 174.758 84.5012 174.808Z" fill="#FFB573"/>
<path d="M115.604 98.8661C113.984 104.371 112.398 109.895 110.844 115.437C109.289 120.958 107.824 126.536 106.415 132.016C106.14 133.198 105.606 135.254 105.112 136.582C104.618 137.91 104.141 139.44 103.647 140.832C102.643 143.601 101.623 146.321 100.587 149.033L94.4587 165.296L83.5948 160.916C85.8453 155.679 87.9582 150.336 90.0144 145.017C91.0101 142.346 91.9896 139.666 92.9206 137.019C93.382 135.692 93.8354 134.372 94.232 133.093C94.6287 131.814 94.8392 130.964 95.1954 129.337C96.4825 123.63 97.8749 118.06 99.1701 112.426C100.465 106.791 101.801 101.206 103.064 95.5795L115.604 98.8661Z" fill="#E0E0E0"/>
<g opacity="0.6">
<path opacity="0.6" d="M115.604 98.8661C113.984 104.371 112.398 109.895 110.844 115.437C109.289 120.958 107.824 126.536 106.415 132.016C106.14 133.198 105.606 135.254 105.112 136.582C104.618 137.91 104.141 139.44 103.647 140.832C102.643 143.601 101.623 146.321 100.587 149.033L94.4587 165.296L83.5948 160.916C85.8453 155.679 87.9582 150.336 90.0144 145.017C91.0101 142.346 91.9896 139.666 92.9206 137.019C93.382 135.692 93.8354 134.372 94.232 133.093C94.6287 131.814 94.8392 130.964 95.1954 129.337C96.4825 123.63 97.8749 118.06 99.1701 112.426C100.465 106.791 101.801 101.206 103.064 95.5795L115.604 98.8661Z" fill="white"/>
</g>
<path d="M121.854 173.634L76.4635 170.477C75.7947 170.424 75.1697 170.124 74.7113 169.634C74.253 169.144 73.9944 168.5 73.9863 167.83V136.671C73.9818 136.352 74.0441 136.036 74.1693 135.742C74.2944 135.449 74.4797 135.185 74.7131 134.968C74.9464 134.75 75.2228 134.584 75.5243 134.48C75.8257 134.376 76.1457 134.337 76.4635 134.364L121.854 137.513C122.522 137.569 123.146 137.872 123.604 138.363C124.062 138.853 124.321 139.497 124.331 140.168V171.327C124.335 171.646 124.273 171.962 124.148 172.255C124.023 172.549 123.837 172.812 123.604 173.03C123.371 173.247 123.094 173.413 122.793 173.517C122.491 173.621 122.171 173.661 121.854 173.634Z" fill="#0F3759"/>
<path d="M122.64 173.172L77.2496 170.015C76.5808 169.963 75.9558 169.662 75.4975 169.172C75.0391 168.683 74.7805 168.039 74.7724 167.368V136.21C74.7679 135.891 74.8302 135.574 74.9554 135.281C75.0806 134.988 75.2658 134.724 75.4992 134.506C75.7326 134.289 76.0089 134.123 76.3104 134.019C76.6119 133.915 76.9318 133.875 77.2496 133.902L122.64 137.051C123.308 137.106 123.932 137.407 124.39 137.896C124.848 138.386 125.107 139.028 125.117 139.699V170.865C125.121 171.184 125.059 171.501 124.934 171.794C124.809 172.087 124.624 172.351 124.39 172.568C124.157 172.786 123.88 172.952 123.579 173.056C123.277 173.16 122.958 173.2 122.64 173.172Z" fill="#00A69B"/>
<path d="M137.355 88.9736C133.632 94.4703 120.558 102.833 117.822 116.449C114.138 103.448 117.684 88.6417 117.684 88.6417C114.125 88.6134 110.58 89.0988 107.16 90.0827C106.047 90.4012 105.045 91.025 104.268 91.8834C103.492 92.7418 102.971 93.8006 102.764 94.9398C100.362 109.19 99.3673 123.642 99.7934 138.088C100.546 165.425 99.5748 207.707 99.5748 207.707C99.5748 207.707 127.309 209.326 149.069 206.978C148.543 186.093 143.127 150.611 143.977 141.342C145.07 129.418 147.693 106.144 149.045 96.4618C149.246 95.09 148.948 93.6915 148.205 92.5208C147.463 91.3501 146.324 90.4849 144.997 90.0827C142.511 89.3757 139.941 89.0027 137.355 88.9736Z" fill="#E0E0E0"/>
<path opacity="0.7" d="M137.355 88.9736C133.632 94.4703 120.558 102.833 117.822 116.449C114.138 103.448 117.684 88.6417 117.684 88.6417C114.125 88.6134 110.58 89.0988 107.16 90.0827C106.047 90.4012 105.045 91.025 104.268 91.8834C103.492 92.7418 102.971 93.8006 102.764 94.9398C100.362 109.19 99.3673 123.642 99.7934 138.088C100.546 165.425 99.5748 207.707 99.5748 207.707C99.5748 207.707 127.309 209.326 149.069 206.978C148.543 186.093 143.127 150.611 143.977 141.342C145.07 129.418 147.693 106.136 149.045 96.4537C149.262 95.1305 149.003 93.7731 148.314 92.6229C147.625 91.4727 146.55 90.6042 145.281 90.1717C142.708 89.4037 140.04 89.0004 137.355 88.9736Z" fill="white"/>
<path d="M139.606 155.468L134.959 161.564L143.37 164.624C143.37 164.624 146.916 158.617 144.091 156.318L139.606 155.468Z" fill="#FFB573"/>
<path d="M135.858 169.311L138.999 169.886C139.617 169.99 140.251 169.877 140.795 169.567C141.34 169.258 141.76 168.77 141.986 168.186L143.371 164.624L134.96 161.564L133.867 166.227C133.783 166.561 133.768 166.908 133.824 167.248C133.88 167.588 134.005 167.913 134.192 168.202C134.379 168.491 134.623 168.739 134.91 168.93C135.196 169.121 135.519 169.251 135.858 169.311Z" fill="#FFB573"/>
<path d="M148.526 93.7337C149.741 96.3971 150.874 98.9309 151.975 101.562C153.076 104.193 154.177 106.791 155.213 109.471C156.249 112.15 157.18 114.879 158.071 117.736C158.5 119.177 158.88 120.65 159.228 122.245C159.39 123.055 159.536 123.864 159.649 124.755C159.781 125.75 159.832 126.755 159.803 127.758C159.803 128.098 159.755 128.446 159.722 128.786L159.593 129.596C159.496 130.146 159.382 130.535 159.277 131.012C159.05 131.822 158.807 132.631 158.565 133.392C158.063 134.882 157.537 136.258 156.986 137.61C155.885 140.322 154.711 142.896 153.513 145.462C152.315 148.029 151.133 150.554 149.895 153.072C148.656 155.59 147.466 158.075 146.179 160.625L135.809 155.104C138.44 150.417 140.925 145.519 143.224 140.67C144.357 138.241 145.434 135.772 146.389 133.384C146.867 132.186 147.32 130.956 147.685 129.855L147.936 129.045L148.13 128.276C148.13 128.082 148.235 127.807 148.243 127.677V127.459V127.005C148.243 126.787 148.203 126.601 148.154 126.341C148.081 125.864 147.976 125.338 147.846 124.787C147.587 123.686 147.239 122.504 146.843 121.314C146.033 118.886 145.086 116.457 144.034 114.029C142.981 111.6 141.864 109.171 140.674 106.743C139.484 104.314 138.246 101.886 136.975 99.6514L148.526 93.7337Z" fill="#E0E0E0"/>
<g opacity="0.7">
<path opacity="0.7" d="M148.526 93.7337C149.741 96.3971 150.874 98.9309 151.975 101.562C153.076 104.193 154.177 106.791 155.213 109.471C156.249 112.15 157.18 114.879 158.071 117.736C158.5 119.177 158.88 120.65 159.228 122.245C159.39 123.055 159.536 123.864 159.649 124.755C159.781 125.75 159.832 126.755 159.803 127.758C159.803 128.098 159.755 128.446 159.722 128.786L159.593 129.596C159.496 130.146 159.382 130.535 159.277 131.012C159.05 131.822 158.807 132.631 158.565 133.392C158.063 134.882 157.537 136.258 156.986 137.61C155.885 140.322 154.711 142.896 153.513 145.462C152.315 148.029 151.133 150.554 149.895 153.072C148.656 155.59 147.466 158.075 146.179 160.625L135.809 155.104C138.44 150.417 140.925 145.519 143.224 140.67C144.357 138.241 145.434 135.772 146.389 133.384C146.867 132.186 147.32 130.956 147.685 129.855L147.936 129.045L148.13 128.276C148.13 128.082 148.235 127.807 148.243 127.677V127.459V127.005C148.243 126.787 148.203 126.601 148.154 126.341C148.081 125.864 147.976 125.338 147.846 124.787C147.587 123.686 147.239 122.504 146.843 121.314C146.033 118.886 145.086 116.457 144.034 114.029C142.981 111.6 141.864 109.171 140.674 106.743C139.484 104.314 138.246 101.886 136.975 99.6514L148.526 93.7337Z" fill="white"/>
</g>
<path d="M131.414 156.707L144.585 166.122C144.585 166.122 146.431 178.758 139.21 179.997C131.989 181.235 130.127 165.814 131.414 156.707Z" fill="#00A69B"/>
<path opacity="0.5" d="M131.414 156.707L144.585 166.122C144.585 166.122 146.431 178.758 139.21 179.997C131.989 181.235 130.127 165.814 131.414 156.707Z" fill="white"/>
<path d="M103.477 156.707L99.0248 166.122C99.0248 166.122 97.9076 178.758 100.053 179.997C102.198 181.235 103.461 165.814 103.477 156.707Z" fill="#00A69B"/>
<path opacity="0.5" d="M103.477 156.707L99.0248 166.122C99.0248 166.122 97.9076 178.758 100.053 179.997C102.198 181.235 103.461 165.814 103.477 156.707Z" fill="white"/>
<path opacity="0.5" d="M119.078 205.165C116.973 178.596 117.272 122.933 117.458 117.963H117.928C117.758 122.933 117.467 178.556 119.547 205.108L119.078 205.165Z" fill="#00A69B"/>
<path d="M181.15 76.3858C175.2 80.6925 170.254 97.5873 184.445 104.412C198.636 111.236 218.647 110.685 212.6 95.8468C206.553 81.0082 208.714 72.2815 194.434 70.5896C180.154 68.8977 181.15 76.3858 181.15 76.3858Z" fill="#0F3759"/>
<path d="M219.392 165.28L222.258 166.276L225.901 171.797C226.433 172.604 226.67 173.571 226.573 174.533L226.362 176.492C226.331 176.817 226.184 177.119 225.947 177.344C225.711 177.568 225.401 177.7 225.075 177.714L221.27 177.844C220.926 177.849 220.591 177.729 220.329 177.505C220.066 177.282 219.895 176.97 219.845 176.629L219.36 172.153C219.36 172.153 217.514 167.684 219.392 165.28Z" fill="#FFB573"/>
<path d="M214.868 120.295C214.804 122.351 214.787 124.553 214.804 126.682C214.82 128.811 214.86 130.98 214.933 133.158C215.087 137.44 215.386 141.715 215.913 145.884L215.961 146.394C215.961 146.394 215.961 146.232 215.961 146.272C215.961 146.313 215.961 146.272 215.961 146.386V146.588L216.026 146.839C216.115 147.195 216.228 147.6 216.35 148.021C216.593 148.83 216.884 149.737 217.159 150.611C217.766 152.368 218.446 154.149 219.143 155.922C219.839 157.695 220.567 159.459 221.32 161.208C222.073 162.957 222.858 164.713 223.652 166.251L217.588 169.781C216.447 167.943 215.524 166.219 214.577 164.454C213.63 162.689 212.747 160.925 211.865 159.144C210.983 157.363 210.141 155.566 209.323 153.704C208.91 152.773 208.514 151.834 208.125 150.83C207.931 150.328 207.745 149.81 207.566 149.211L207.437 148.766L207.299 148.264C207.259 148.094 207.218 147.859 207.178 147.657C207.137 147.454 207.097 147.09 207.073 146.807L207.129 147.317C206.239 142.807 205.615 138.323 205.138 133.838C204.903 131.596 204.701 129.361 204.531 127.111C204.361 124.86 204.223 122.658 204.134 120.311L214.868 120.295Z" fill="#00A69B"/>
<path opacity="0.5" d="M214.868 120.295C214.804 122.351 214.787 124.553 214.804 126.682C214.82 128.811 214.86 130.98 214.933 133.158C215.087 137.44 215.386 141.715 215.913 145.884L215.961 146.394C215.961 146.394 215.961 146.232 215.961 146.272C215.961 146.313 215.961 146.272 215.961 146.386V146.588L216.026 146.839C216.115 147.195 216.228 147.6 216.35 148.021C216.593 148.83 216.884 149.737 217.159 150.611C217.766 152.368 218.446 154.149 219.143 155.922C219.839 157.695 220.567 159.459 221.32 161.208C222.073 162.957 222.858 164.713 223.652 166.251L217.588 169.781C216.447 167.943 215.524 166.219 214.577 164.454C213.63 162.689 212.747 160.925 211.865 159.144C210.983 157.363 210.141 155.566 209.323 153.704C208.91 152.773 208.514 151.834 208.125 150.83C207.931 150.328 207.745 149.81 207.566 149.211L207.437 148.766L207.299 148.264C207.259 148.094 207.218 147.859 207.178 147.657C207.137 147.454 207.097 147.09 207.073 146.807L207.129 147.317C206.239 142.807 205.615 138.323 205.138 133.838C204.903 131.596 204.701 129.361 204.531 127.111C204.361 124.86 204.223 122.658 204.134 120.311L214.868 120.295Z" fill="white"/>
<path d="M209.809 157.452C209.809 157.452 208.87 212.67 206.571 235.021C203.641 264.164 195.78 288.773 193.926 308.906L187.418 307.975C187.418 307.975 186.997 258.683 192.914 235.118C187.547 210.128 187.418 157.484 187.418 157.484L209.809 157.452Z" fill="#FFB573"/>
<path d="M204.15 157.452C204.15 157.452 194.921 213.261 189.724 235.66C182.948 264.884 182.009 310.906 182.009 310.906L175.897 310.315C175.897 310.315 168.87 268.357 176.431 235.66C175.865 210.565 180.754 157.452 180.754 157.452H204.15Z" fill="#FFB573"/>
<path d="M213.692 117.785C214.016 123.144 214.267 138.29 211.385 161.451H180C180.04 150.231 180.955 139.488 175.839 118.392C175.639 117.626 175.605 116.827 175.739 116.047C175.873 115.267 176.172 114.525 176.615 113.87C177.059 113.215 177.637 112.662 178.312 112.248C178.986 111.835 179.741 111.569 180.526 111.471C182.299 111.244 184.323 111.042 186.435 110.944C190.973 110.612 195.53 110.612 200.068 110.944C203.014 111.212 206.172 111.681 208.576 112.094C209.944 112.329 211.193 113.019 212.122 114.052C213.05 115.084 213.603 116.399 213.692 117.785Z" fill="white"/>
<path d="M188.783 96.1139C189.811 100.502 190.976 108.532 188.022 111.495C188.022 111.495 190.758 115.842 199.234 119.501C203.905 116.676 201.662 111.495 201.662 111.495C196.724 110.329 196.716 106.694 197.436 103.286L188.783 96.1139Z" fill="#FFB573"/>
<path opacity="0.2" d="M192.314 99.0284L197.43 103.254C197.244 104.052 197.133 104.865 197.098 105.683C195.22 105.407 192.573 103.359 192.297 101.4C192.159 100.615 192.164 99.8115 192.314 99.0284Z" fill="black"/>
<path d="M183.855 88.0673C185.83 95.1993 186.526 98.2593 190.833 101.327C197.309 105.958 205.307 102.331 205.404 94.8512C205.502 88.1078 202.247 77.5678 194.824 75.9163C187.401 74.2649 181.871 80.9273 183.855 88.0673Z" fill="#FFB573"/>
<path d="M185.311 91.8317C187.051 90.3259 188.784 83.7364 187.877 80.9354C194.102 81.4454 199.291 79.2516 201.801 81.3726C202.068 78.1345 199.186 73.7468 194.062 73.7954C188.938 73.844 176.617 80.0045 185.311 91.8317Z" fill="#0F3759"/>
<path d="M193.754 88.3021C193.876 88.893 194.288 89.314 194.669 89.2411C195.049 89.1683 195.26 88.6421 195.13 88.0592C195.001 87.4763 194.596 87.0473 194.216 87.1202C193.835 87.193 193.625 87.7192 193.754 88.3021Z" fill="#0F3759"/>
<path d="M200.789 87.0149C200.919 87.6058 201.331 88.0268 201.712 87.9539C202.092 87.8811 202.303 87.3549 202.173 86.772C202.044 86.1892 201.639 85.7601 201.25 85.833C200.862 85.9058 200.668 86.432 200.789 87.0149Z" fill="#0F3759"/>
<path d="M201.097 85.8897L202.409 85.234C202.409 85.234 201.923 86.4645 201.097 85.8897Z" fill="#0F3759"/>
<path d="M199.761 88.286C200.571 89.5344 201.543 90.6696 202.651 91.6617C202.397 91.9309 202.085 92.1397 201.739 92.2727C201.393 92.4058 201.021 92.4598 200.652 92.4308L199.761 88.286Z" fill="#ED893E"/>
<path d="M198.296 95.3854C198.63 95.3828 198.963 95.3503 199.292 95.2882C199.314 95.2845 199.335 95.2761 199.354 95.2636C199.373 95.2512 199.389 95.2349 199.401 95.2158C199.414 95.1967 199.422 95.1753 199.425 95.1529C199.428 95.1305 199.427 95.1077 199.421 95.0858C199.41 95.0407 199.382 95.0016 199.343 94.9761C199.304 94.9506 199.257 94.9407 199.211 94.9482C198.477 95.089 197.72 95.0586 197 94.8592C196.279 94.6598 195.615 94.2969 195.058 93.7987C195.024 93.7656 194.979 93.747 194.932 93.747C194.885 93.747 194.84 93.7656 194.807 93.7987C194.776 93.833 194.758 93.8777 194.758 93.9242C194.758 93.9706 194.776 94.0153 194.807 94.0496C195.761 94.9174 197.006 95.3943 198.296 95.3854Z" fill="#0F3759"/>
<path d="M182.243 93.0136C183.026 94.2267 184.242 95.0953 185.643 95.4422C187.505 95.8794 188.29 94.236 187.659 92.5603C187.092 91.0465 185.449 88.9984 183.611 89.3222C181.774 89.646 181.304 91.5241 182.243 93.0136Z" fill="#FFB573"/>
<path d="M192.193 85.2745C192.241 85.27 192.288 85.2554 192.33 85.2317C192.371 85.208 192.408 85.1757 192.436 85.1368C192.69 84.7848 193.024 84.4993 193.412 84.3048C193.8 84.1103 194.229 84.0124 194.662 84.0197C194.754 84.0264 194.844 83.9971 194.913 83.9381C194.983 83.879 195.027 83.7949 195.035 83.704C195.036 83.6109 195.002 83.5209 194.941 83.4508C194.88 83.3806 194.795 83.3354 194.703 83.3235C194.154 83.3055 193.608 83.4222 193.114 83.6635C192.62 83.9048 192.193 84.2633 191.87 84.7078C191.815 84.7819 191.792 84.8747 191.806 84.9657C191.819 85.0567 191.869 85.1386 191.942 85.1935C192.016 85.2457 192.103 85.2739 192.193 85.2745Z" fill="#0F3759"/>
<path d="M203.113 83.1048C203.155 83.0891 203.192 83.0652 203.224 83.0346C203.256 83.004 203.282 82.9673 203.3 82.9267C203.318 82.8848 203.329 82.8395 203.33 82.7935C203.331 82.7476 203.323 82.7018 203.307 82.6589C203.29 82.616 203.265 82.5768 203.233 82.5436C203.202 82.5103 203.164 82.4837 203.121 82.4653C202.628 82.2085 202.079 82.0744 201.523 82.0744C200.966 82.0744 200.418 82.2085 199.924 82.4653C199.885 82.49 199.851 82.5222 199.824 82.5601C199.798 82.598 199.779 82.6409 199.769 82.6861C199.759 82.7313 199.759 82.778 199.767 82.8235C199.776 82.869 199.793 82.9124 199.819 82.951C199.869 83.0295 199.947 83.0858 200.037 83.1084C200.128 83.131 200.223 83.1181 200.304 83.0725C200.696 82.8695 201.13 82.7635 201.571 82.7635C202.012 82.7635 202.447 82.8695 202.838 83.0725C202.879 83.0974 202.925 83.1132 202.972 83.1187C203.02 83.1243 203.068 83.1196 203.113 83.1048Z" fill="#0F3759"/>
<path d="M194.054 87.1768L195.365 86.5211C195.365 86.5211 194.88 87.784 194.054 87.1768Z" fill="#0F3759"/>
<path d="M211.387 161.451L212.01 247.301C197.438 248.491 183.507 248.046 170.36 245.472C169.494 213.26 163.196 177.763 180.001 161.451H211.387Z" fill="#0F3759"/>
<path opacity="0.2" d="M195.154 219.551L191.868 191.298L199.76 183.146L195.154 219.551Z" fill="black"/>
<path d="M215.11 123.112C214.714 115.575 213.491 112.588 208.537 111.681C203.583 110.775 198.928 110.256 198.928 110.256C200.613 111.359 202.042 112.811 203.118 114.514C204.194 116.217 204.891 118.131 205.163 120.126C205.434 122.122 205.274 124.153 204.693 126.081C204.112 128.01 203.123 129.791 201.794 131.304C198.458 125.103 185.806 115.389 188.841 110.329C185.883 110.179 182.916 110.391 180.009 110.961C175.152 111.9 173.727 115.259 174.925 122.739C178.01 141.844 175.654 165.045 175.654 165.045C175.654 165.045 193.731 173.561 199.737 175.189C209.298 172.857 211.403 166.17 211.403 166.17C211.403 166.17 215.547 130.689 215.11 123.112Z" fill="#00A69B"/>
<path opacity="0.6" d="M215.11 123.112C214.714 115.575 213.491 112.588 208.537 111.681C203.583 110.775 198.928 110.256 198.928 110.256C200.613 111.359 202.042 112.811 203.118 114.514C204.194 116.217 204.891 118.131 205.163 120.126C205.434 122.122 205.274 124.153 204.693 126.081C204.112 128.01 203.123 129.791 201.794 131.304C198.458 125.103 185.805 115.389 188.841 110.329C185.883 110.179 182.916 110.391 180.009 110.961C175.152 111.9 173.727 115.259 174.925 122.739C178.01 141.844 175.654 165.045 175.654 165.045C175.654 165.045 193.731 173.561 199.737 175.189C209.298 172.857 211.403 166.17 211.403 166.17C211.403 166.17 215.547 130.689 215.11 123.112Z" fill="white"/>
<path d="M188.178 137.748C184.81 132.834 182.284 125.605 184.243 121.954C184.609 121.281 185.16 120.727 185.832 120.36C186.504 119.992 187.268 119.826 188.032 119.882C188.687 119.878 189.335 120.013 189.933 120.278C190.532 120.543 191.067 120.932 191.505 121.42C193.69 123.808 194.451 128.77 193.828 136.574L193.019 136.509C193.618 129.045 192.905 124.156 190.914 121.978C190.555 121.572 190.112 121.248 189.616 121.029C189.12 120.809 188.582 120.7 188.04 120.707C187.429 120.656 186.817 120.781 186.276 121.068C185.735 121.355 185.287 121.792 184.988 122.326C183.426 125.257 185.134 131.822 188.874 137.27L188.178 137.748Z" fill="#0F3759"/>
<path d="M188.865 139.189C189.549 139.189 190.103 138.381 190.103 137.384C190.103 136.387 189.549 135.578 188.865 135.578C188.181 135.578 187.626 136.387 187.626 137.384C187.626 138.381 188.181 139.189 188.865 139.189Z" fill="#0F3759"/>
<path d="M194.783 136.898C194.783 137.894 194.224 138.703 193.544 138.703C192.864 138.703 192.306 137.894 192.306 136.898C192.306 135.902 192.864 135.093 193.544 135.093C194.224 135.093 194.783 135.902 194.783 136.898Z" fill="#0F3759"/>
<path d="M210.771 122.197C210.798 122.596 210.707 122.993 210.509 123.341C210.311 123.688 210.015 123.969 209.658 124.148C209.302 124.328 208.9 124.399 208.503 124.351C208.106 124.304 207.732 124.141 207.428 123.882C207.124 123.623 206.902 123.28 206.792 122.896C206.681 122.512 206.686 122.104 206.806 121.723C206.926 121.342 207.156 121.005 207.467 120.754C207.778 120.502 208.156 120.348 208.553 120.311C209.097 120.268 209.636 120.443 210.052 120.796C210.467 121.15 210.726 121.653 210.771 122.197Z" fill="#0F3759"/>
<path d="M187.627 120.724C187.544 120.722 187.463 120.696 187.395 120.649C187.327 120.601 187.275 120.534 187.246 120.457C186.158 117.159 185.834 113.657 186.299 110.216C186.304 110.162 186.32 110.11 186.345 110.062C186.371 110.014 186.406 109.972 186.448 109.938C186.491 109.904 186.539 109.879 186.592 109.864C186.644 109.849 186.698 109.845 186.752 109.852C186.86 109.864 186.96 109.918 187.028 110.003C187.096 110.088 187.128 110.197 187.117 110.305C186.699 113.619 187.008 116.983 188.023 120.165C188.044 120.215 188.055 120.269 188.055 120.323C188.055 120.377 188.044 120.43 188.023 120.48C188.002 120.53 187.971 120.575 187.932 120.613C187.893 120.65 187.847 120.68 187.797 120.699C187.743 120.721 187.684 120.729 187.627 120.724Z" fill="#0F3759"/>
<path d="M209.532 122.173C209.427 122.173 209.325 122.133 209.248 122.06C209.172 121.988 209.126 121.889 209.119 121.784C209.119 121.695 208.545 112.636 201.461 110.969C201.355 110.944 201.263 110.878 201.206 110.785C201.148 110.693 201.129 110.581 201.154 110.475C201.18 110.368 201.248 110.276 201.342 110.219C201.436 110.161 201.548 110.143 201.655 110.167C209.338 111.981 209.937 121.647 209.945 121.744C209.948 121.797 209.941 121.851 209.923 121.902C209.905 121.953 209.877 122 209.841 122.04C209.805 122.08 209.761 122.112 209.712 122.135C209.663 122.158 209.61 122.171 209.556 122.173H209.532Z" fill="#0F3759"/>
<path d="M189.036 153.145L196.119 126.164C196.244 125.753 196.498 125.393 196.844 125.138C197.189 124.883 197.608 124.746 198.037 124.747L217.329 125.467C217.515 125.464 217.7 125.505 217.868 125.587C218.035 125.669 218.181 125.79 218.292 125.939C218.404 126.089 218.478 126.263 218.509 126.447C218.54 126.631 218.527 126.82 218.47 126.997L211.354 153.979C211.23 154.391 210.976 154.751 210.63 155.006C210.285 155.262 209.865 155.398 209.436 155.396L190.153 154.675C189.968 154.675 189.786 154.631 189.622 154.548C189.457 154.464 189.315 154.343 189.206 154.194C189.097 154.044 189.025 153.872 188.995 153.69C188.966 153.508 188.98 153.321 189.036 153.145Z" fill="#0F3759"/>
<path d="M189.237 153.623L196.353 126.641C196.476 126.229 196.729 125.868 197.075 125.612C197.421 125.357 197.841 125.221 198.271 125.225L217.554 125.945C217.741 125.94 217.927 125.979 218.096 126.061C218.264 126.142 218.411 126.263 218.523 126.413C218.635 126.563 218.709 126.738 218.739 126.923C218.769 127.108 218.754 127.297 218.696 127.475L211.588 154.465C211.461 154.875 211.205 155.234 210.858 155.488C210.511 155.742 210.091 155.877 209.661 155.873L190.378 155.153C190.191 155.158 190.005 155.119 189.837 155.037C189.668 154.956 189.522 154.835 189.41 154.685C189.298 154.534 189.224 154.36 189.194 154.175C189.164 153.99 189.178 153.801 189.237 153.623Z" fill="#00A69B"/>
<path d="M186.703 144.524L187.043 141.504L191.641 136.744C192.315 136.053 193.207 135.615 194.166 135.506L196.125 135.279C196.449 135.238 196.776 135.316 197.047 135.497C197.317 135.679 197.513 135.952 197.599 136.267L198.554 139.958C198.625 140.288 198.576 140.632 198.415 140.929C198.255 141.226 197.994 141.455 197.68 141.577L193.413 143.018C193.413 143.018 189.463 145.835 186.703 144.524Z" fill="#FFB573"/>
<path d="M184.445 119.663C184.154 120.044 183.781 120.562 183.449 121.023L182.437 122.488C181.763 123.476 181.115 124.477 180.495 125.492C179.254 127.499 178.116 129.569 177.086 131.693C176.101 133.72 175.289 135.827 174.658 137.991C174.071 139.867 173.816 141.831 173.905 143.795L172.084 140.792C171.574 140.468 171.59 140.581 171.703 140.606C171.907 140.67 172.115 140.719 172.326 140.751C172.95 140.86 173.58 140.925 174.213 140.946C175.669 140.987 177.126 140.941 178.576 140.808C180.066 140.678 181.555 140.468 183.012 140.193C184.434 139.927 185.835 139.562 187.206 139.1L189.893 145.576C188.246 146.322 186.547 146.947 184.809 147.446C183.126 147.944 181.419 148.354 179.693 148.676C177.928 149.011 176.143 149.238 174.35 149.356C173.361 149.421 172.369 149.421 171.379 149.356C170.78 149.32 170.184 149.236 169.598 149.106C168.658 148.917 167.766 148.54 166.975 147.996L165.445 146.993L165.154 145.001C164.744 141.916 164.906 138.783 165.632 135.756C166.256 133.02 167.112 130.342 168.19 127.75C169.221 125.248 170.38 122.8 171.663 120.416C172.294 119.234 172.95 118.066 173.63 116.911L174.682 115.186C175.046 114.595 175.378 114.069 175.824 113.414L184.445 119.663Z" fill="#00A69B"/>
<path opacity="0.6" d="M184.445 119.663C184.154 120.044 183.781 120.562 183.449 121.023L182.437 122.488C181.763 123.476 181.115 124.477 180.495 125.492C179.254 127.499 178.116 129.569 177.086 131.693C176.101 133.72 175.289 135.827 174.658 137.991C174.071 139.867 173.816 141.831 173.905 143.795L172.084 140.792C171.574 140.468 171.59 140.581 171.703 140.606C171.907 140.67 172.115 140.719 172.326 140.751C172.95 140.86 173.58 140.925 174.213 140.946C175.669 140.987 177.126 140.941 178.576 140.808C180.066 140.678 181.555 140.468 183.012 140.193C184.434 139.927 185.835 139.562 187.206 139.1L189.893 145.576C188.246 146.322 186.547 146.947 184.809 147.446C183.126 147.944 181.419 148.354 179.693 148.676C177.928 149.011 176.143 149.238 174.35 149.356C173.361 149.421 172.369 149.421 171.379 149.356C170.78 149.32 170.184 149.236 169.598 149.106C168.658 148.917 167.766 148.54 166.975 147.996L165.445 146.993L165.154 145.001C164.744 141.916 164.906 138.783 165.632 135.756C166.256 133.02 167.112 130.342 168.19 127.75C169.221 125.248 170.38 122.8 171.663 120.416C172.294 119.234 172.95 118.066 173.63 116.911L174.682 115.186C175.046 114.595 175.378 114.069 175.824 113.414L184.445 119.663Z" fill="white"/>
</g>
</svg>
