<svg width="24" height="24" viewBox="0 0 24 24" fill="none" xmlns="http://www.w3.org/2000/svg">
<path fill-rule="evenodd" clip-rule="evenodd" d="M6.20574 3.61591C6.31973 3.47912 6.4886 3.40002 6.66667 3.40002H17.3333C17.5114 3.40002 17.6803 3.47912 17.7943 3.61591L20.4609 6.81591C20.5508 6.92374 20.6 7.05966 20.6 7.20002V18.4C20.6 19.0051 20.3324 19.5709 19.8807 19.9774C19.4311 20.382 18.8336 20.6 18.2222 20.6H5.77778C5.16636 20.6 4.56892 20.382 4.11932 19.9774C3.66764 19.5709 3.4 19.0051 3.4 18.4V7.20002C3.4 7.05966 3.44921 6.92374 3.53907 6.81591L6.20574 3.61591ZM6.94769 4.60002L4.6 7.41725V18.4C4.6 18.6436 4.70696 18.8918 4.92208 19.0854C5.13928 19.2809 5.4462 19.4 5.77778 19.4H18.2222C18.5538 19.4 18.8607 19.2809 19.0779 19.0854C19.293 18.8918 19.4 18.6436 19.4 18.4V7.41725L17.0523 4.60002H6.94769Z" fill="white"/>
<path fill-rule="evenodd" clip-rule="evenodd" d="M3.4 7.19998C3.4 6.8686 3.66863 6.59998 4 6.59998H20C20.3314 6.59998 20.6 6.8686 20.6 7.19998C20.6 7.53135 20.3314 7.79998 20 7.79998H4C3.66863 7.79998 3.4 7.53135 3.4 7.19998Z" fill="white"/>
<path fill-rule="evenodd" clip-rule="evenodd" d="M8.44444 9.80005C8.77582 9.80005 9.04444 10.0687 9.04444 10.4C9.04444 11.068 9.33871 11.7232 9.88722 12.2168C10.4378 12.7124 11.1969 13 12 13C12.8031 13 13.5622 12.7124 14.1128 12.2168C14.6613 11.7232 14.9556 11.068 14.9556 10.4C14.9556 10.0687 15.2242 9.80005 15.5556 9.80005C15.8869 9.80005 16.1556 10.0687 16.1556 10.4C16.1556 11.4295 15.7006 12.4022 14.9155 13.1088C14.1325 13.8135 13.0829 14.2 12 14.2C10.9171 14.2 9.86746 13.8135 9.08446 13.1088C8.29939 12.4022 7.84444 11.4295 7.84444 10.4C7.84444 10.0687 8.11307 9.80005 8.44444 9.80005Z" fill="white"/>
</svg>
