<svg width="24" height="26" viewBox="0 0 24 26" fill="none" xmlns="http://www.w3.org/2000/svg">
<path fill-rule="evenodd" clip-rule="evenodd" d="M12 5.60002C7.91309 5.60002 4.6 8.91312 4.6 13C4.6 17.0869 7.91309 20.4 12 20.4C16.0869 20.4 19.4 17.0869 19.4 13C19.4 8.91312 16.0869 5.60002 12 5.60002ZM3.4 13C3.4 8.25038 7.25035 4.40002 12 4.40002C16.7496 4.40002 20.6 8.25038 20.6 13C20.6 17.7497 16.7496 21.6 12 21.6C7.25035 21.6 3.4 17.7497 3.4 13Z" fill="white"/>
<path fill-rule="evenodd" clip-rule="evenodd" d="M14.4243 10.5758C14.6586 10.8101 14.6586 11.19 14.4243 11.4243L10.4243 15.4243C10.1899 15.6586 9.81005 15.6586 9.57574 15.4243C9.34142 15.19 9.34142 14.8101 9.57574 14.5758L13.5757 10.5758C13.8101 10.3414 14.1899 10.3414 14.4243 10.5758Z" fill="white"/>
<path fill-rule="evenodd" clip-rule="evenodd" d="M9.57574 10.5758C9.81005 10.3414 10.1899 10.3414 10.4243 10.5758L14.4243 14.5758C14.6586 14.8101 14.6586 15.19 14.4243 15.4243C14.1899 15.6586 13.8101 15.6586 13.5757 15.4243L9.57574 11.4243C9.34142 11.19 9.34142 10.8101 9.57574 10.5758Z" fill="white"/>
</svg>
