<svg width="24" height="24" viewBox="0 0 24 24" fill="none" xmlns="http://www.w3.org/2000/svg">
<path d="M8.70938 14.6666V20H17.776V15.7333" stroke="#091C3F" stroke-width="1.2" stroke-linecap="round" stroke-linejoin="round"/>
<path fill-rule="evenodd" clip-rule="evenodd" d="M15.6427 13.6C15.6427 12.4219 16.5979 11.4667 17.776 11.4667C18.9542 11.4667 19.9094 12.4219 19.9094 13.6C19.9094 14.7781 18.9542 15.7333 17.776 15.7333C16.5979 15.7333 15.6427 14.7781 15.6427 13.6V13.6Z" stroke="#00A59B" stroke-width="1.2" stroke-linecap="round" stroke-linejoin="round"/>
<path d="M11.3757 4.53333H13.4184C13.7459 4.53333 13.996 4.82613 13.9448 5.14986L12.5848 13.7664C12.5027 14.2848 12.0557 14.6667 11.5309 14.6667H6.42054C5.89574 14.6667 5.4488 14.2848 5.36667 13.7664L4.00667 5.14986C3.95547 4.82613 4.2056 4.53333 4.53307 4.53333H6.57574" stroke="#091C3F" stroke-width="1.2" stroke-linecap="round" stroke-linejoin="round"/>
<path d="M6.57603 4V5.6" stroke="#00A59B" stroke-width="1.2" stroke-linecap="round" stroke-linejoin="round"/>
<path d="M11.376 4V5.6" stroke="#00A59B" stroke-width="1.2" stroke-linecap="round" stroke-linejoin="round"/>
</svg>
