<svg width="24" height="24" viewBox="0 0 24 24" fill="none" xmlns="http://www.w3.org/2000/svg">
<path fill-rule="evenodd" clip-rule="evenodd" d="M20 6.4C20 5.10031 18.9502 4 17.6 4C16.9243 4 15.5218 4.40062 14.2898 4.80123C13.5452 5.04308 12.7723 5.16431 12 5.16492C11.2277 5.16431 10.4548 5.04308 9.71015 4.80123C8.47815 4.40062 7.07569 4 6.4 4C5.04985 4 4 5.10031 4 6.4C4 7.69969 4.8 10.4 4.8 10.4L4 18.4757C4 19.3175 4.68246 20 5.52431 20C6.06646 20 6.51692 19.6166 6.84123 19.2437L9.92677 15.5908C10.4831 14.9169 11.1951 14.4 12 14.4C12.8049 14.4 13.4665 14.8831 14.0732 15.5908L17.1588 19.2437C17.4665 19.6332 17.9335 20 18.4757 20C19.3175 20 20 19.3175 20 18.4757L19.2 10.4C19.2 10.4 20 7.69969 20 6.4Z" stroke="white" stroke-width="1.5" stroke-linecap="round" stroke-linejoin="round"/>
<path fill-rule="evenodd" clip-rule="evenodd" d="M8.86952 7.91901C8.96349 7.51559 9.3667 7.26474 9.77011 7.35871C10.4985 7.52837 11.2444 7.61423 11.9969 7.61546C12.7545 7.61423 13.5017 7.52832 14.2306 7.35868C14.634 7.26478 15.0371 7.5157 15.131 7.91913C15.225 8.32256 14.974 8.72573 14.5706 8.81963C13.7293 9.01545 12.8683 9.11415 11.998 9.11546H11.9957C11.1301 9.11415 10.2703 9.01539 9.42981 8.8196C9.0264 8.72563 8.77554 8.32242 8.86952 7.91901Z" fill="white"/>
</svg>
