<svg width="24" height="24" viewBox="0 0 24 24" fill="none" xmlns="http://www.w3.org/2000/svg">
<path fill-rule="evenodd" clip-rule="evenodd" d="M3.4 4.00002C3.4 3.66865 3.66863 3.40002 4 3.40002H10.6207C10.7798 3.40002 10.9324 3.46324 11.045 3.57576L20.4243 12.9551C20.6586 13.1894 20.6586 13.5693 20.4243 13.8036L13.8036 20.4243L13.3793 20L12.955 20.4243L3.57574 11.045C3.46321 10.9325 3.4 10.7798 3.4 10.6207V4.00002ZM13.3793 19.1515L19.1515 13.3793L10.3722 4.60002H4.6V10.3722L13.3793 19.1515Z" fill="white"/>
<path fill-rule="evenodd" clip-rule="evenodd" d="M7.86207 7.35857C7.58378 7.35857 7.35862 7.58373 7.35862 7.86202C7.35862 8.1403 7.58378 8.36547 7.86207 8.36547C8.14035 8.36547 8.36552 8.1403 8.36552 7.86202C8.36552 7.58373 8.14035 7.35857 7.86207 7.35857ZM6.15862 7.86202C6.15862 6.92099 6.92104 6.15857 7.86207 6.15857C8.8031 6.15857 9.56552 6.92099 9.56552 7.86202C9.56552 8.80304 8.8031 9.56547 7.86207 9.56547C6.92104 9.56547 6.15862 8.80304 6.15862 7.86202Z" fill="white"/>
</svg>
