<svg width="24" height="24" viewBox="0 0 24 24" fill="none" xmlns="http://www.w3.org/2000/svg">
<path fill-rule="evenodd" clip-rule="evenodd" d="M12 10.0286C11.0441 10.0286 10.2 10.8715 10.2 12C10.2 13.1286 11.0441 13.9715 12 13.9715C12.9559 13.9715 13.8 13.1286 13.8 12C13.8 10.8715 12.9559 10.0286 12 10.0286ZM12 8.82861C10.3047 8.82861 8.99998 10.288 8.99998 12C8.99998 13.712 10.3047 15.1715 12 15.1715C13.6953 15.1715 15 13.712 15 12C15 10.288 13.6953 8.82861 12 8.82861Z" fill="white"/>
<path fill-rule="evenodd" clip-rule="evenodd" d="M4.73168 12C4.81419 12.1125 4.91849 12.2502 5.04352 12.4065C5.40309 12.8559 5.93034 13.4549 6.59961 14.0525C7.94893 15.2572 9.81114 16.4 12 16.4C14.1889 16.4 16.0511 15.2572 17.4004 14.0525C18.0697 13.4549 18.5969 12.8559 18.9565 12.4065C19.0815 12.2502 19.1858 12.1125 19.2683 12C19.1858 11.8875 19.0815 11.7499 18.9565 11.5936C18.5969 11.1441 18.0697 10.5451 17.4004 9.94759C16.0511 8.74284 14.1889 7.60002 12 7.60002C9.81114 7.60002 7.94893 8.74284 6.59961 9.94759C5.93034 10.5451 5.40309 11.1441 5.04352 11.5936C4.91849 11.7499 4.81419 11.8875 4.73168 12ZM20 12C20.5054 11.6766 20.5052 11.6764 20.5051 11.6762L20.5039 11.6743L20.5013 11.6703L20.4925 11.6568C20.4851 11.6454 20.4745 11.6295 20.4609 11.6092C20.4337 11.5687 20.3941 11.5109 20.3427 11.4383C20.2398 11.2931 20.0891 11.0884 19.8935 10.844C19.5031 10.3559 18.9303 9.7049 18.1996 9.05246C16.7489 7.75721 14.6111 6.40002 12 6.40002C9.38886 6.40002 7.25108 7.75721 5.80039 9.05246C5.06966 9.7049 4.49692 10.3559 4.10648 10.844C3.91092 11.0884 3.76017 11.2931 3.65732 11.4383C3.60587 11.5109 3.56634 11.5687 3.53911 11.6092C3.52549 11.6295 3.51495 11.6454 3.50752 11.6568L3.49873 11.6703L3.49609 11.6743L3.49522 11.6757C3.49508 11.6759 3.49464 11.6766 4 12L3.49464 11.6766C3.36846 11.8738 3.36846 12.1263 3.49464 12.3235L4 12C3.49464 12.3235 3.49451 12.3233 3.49464 12.3235L3.49522 12.3244L3.49609 12.3257L3.49873 12.3298L3.50752 12.3433C3.51495 12.3546 3.52549 12.3706 3.53911 12.3908C3.56634 12.4314 3.60587 12.4891 3.65732 12.5618C3.76017 12.7069 3.91092 12.9116 4.10648 13.1561C4.49692 13.6441 5.06966 14.2951 5.80039 14.9476C7.25108 16.2428 9.38886 17.6 12 17.6C14.6111 17.6 16.7489 16.2428 18.1996 14.9476C18.9303 14.2951 19.5031 13.6441 19.8935 13.1561C20.0891 12.9116 20.2398 12.7069 20.3427 12.5618C20.3941 12.4891 20.4337 12.4314 20.4609 12.3908C20.4745 12.3706 20.4851 12.3546 20.4925 12.3433L20.5013 12.3298L20.5039 12.3257L20.5048 12.3244C20.5049 12.3242 20.5054 12.3235 20 12ZM20 12L20.5054 12.3235C20.6315 12.1263 20.6313 11.8734 20.5051 11.6762L20 12ZM4.50508 12.3239C4.50503 12.324 4.50503 12.324 4.50508 12.3239Z" fill="white"/>
<path fill-rule="evenodd" clip-rule="evenodd" d="M18.5303 5.46967C18.8232 5.76256 18.8232 6.23744 18.5303 6.53033L5.53033 19.5303C5.23744 19.8232 4.76256 19.8232 4.46967 19.5303C4.17678 19.2374 4.17678 18.7626 4.46967 18.4697L17.4697 5.46967C17.7626 5.17678 18.2374 5.17678 18.5303 5.46967Z" fill="white"/>
</svg>
