<svg width="24" height="24" viewBox="0 0 24 24" fill="none" xmlns="http://www.w3.org/2000/svg">
<path fill-rule="evenodd" clip-rule="evenodd" d="M3.99015 12.3895C4.07861 12.4867 4.18071 12.5965 4.29563 12.7164C4.76209 13.2031 5.43521 13.8518 6.26032 14.4989C7.9316 15.8097 10.1261 17.0354 12.4372 17.0354C14.7484 17.0354 16.9429 15.8097 18.6141 14.4989C19.4393 13.8518 20.1124 13.2031 20.5788 12.7164C20.6925 12.5978 20.7936 12.4891 20.8814 12.3927C20.7936 12.2963 20.6925 12.1876 20.5788 12.069C20.1124 11.5823 19.4393 10.9336 18.6141 10.2865C16.9429 8.97569 14.7484 7.75 12.4372 7.75C10.0913 7.75 7.89657 8.97692 6.23645 10.2854C5.41618 10.9319 4.74982 11.5799 4.28897 12.0661C4.17664 12.1846 4.07678 12.2932 3.99015 12.3895ZM21.8745 12.3927C22.4601 11.9242 22.46 11.924 22.4598 11.9238L22.4594 11.9233L22.4583 11.9219L22.4548 11.9176L22.4432 11.9033C22.4334 11.8913 22.4194 11.8742 22.4014 11.8526C22.3654 11.8092 22.3131 11.7473 22.2455 11.6694C22.1104 11.5137 21.9135 11.2938 21.6618 11.0312C21.1593 10.5068 20.4337 9.80724 19.5399 9.10621C17.7733 7.72066 15.2492 6.25 12.4372 6.25C9.59267 6.25 7.0688 7.71944 5.30793 9.10732C4.4177 9.80897 3.69796 10.5092 3.20034 11.0341C2.95111 11.2971 2.75649 11.5172 2.62292 11.6732C2.55611 11.7512 2.5045 11.8133 2.46889 11.8567C2.45109 11.8785 2.43727 11.8955 2.42755 11.9076L2.41606 11.922L2.41264 11.9263L2.41151 11.9278L2.41109 11.9283C2.41093 11.9285 2.41077 11.9287 3 12.3927C2.41435 12.8612 2.4145 12.8614 2.41466 12.8616L2.41508 12.8621L2.41621 12.8635L2.41965 12.8678L2.43125 12.8821C2.44107 12.8942 2.45504 12.9112 2.47306 12.9328C2.5091 12.9762 2.56135 13.0381 2.62895 13.116C2.7641 13.2717 2.96095 13.4916 3.21265 13.7542C3.71519 14.2786 4.4408 14.9782 5.33461 15.6792C7.10119 17.0647 9.62531 18.5354 12.4372 18.5354C15.2492 18.5354 17.7733 17.0647 19.5399 15.6792C20.4337 14.9782 21.1593 14.2786 21.6618 13.7542C21.9135 13.4916 22.1104 13.2717 22.2455 13.116C22.3131 13.0381 22.3654 12.9762 22.4014 12.9328C22.4194 12.9112 22.4334 12.8942 22.4432 12.8821L22.4548 12.8678L22.4583 12.8635L22.4594 12.8621L22.4598 12.8616C22.46 12.8614 22.4601 12.8612 21.8745 12.3927ZM21.8745 12.3927L22.4601 12.8612C22.6793 12.5873 22.6793 12.1981 22.4601 11.9242L21.8745 12.3927Z" fill="white"/>
<path fill-rule="evenodd" clip-rule="evenodd" d="M12.4372 7.75C10.6175 7.75 9.14265 9.22481 9.14265 11.0445C9.14265 12.8642 10.6175 14.3391 12.4372 14.3391C14.2569 14.3391 15.7317 12.8642 15.7317 11.0445C15.7317 9.22481 14.2569 7.75 12.4372 7.75ZM12.4372 6.25C9.78904 6.25 7.64265 8.39639 7.64265 11.0445C7.64265 13.6927 9.78904 15.8391 12.4372 15.8391C15.0853 15.8391 17.2317 13.6927 17.2317 11.0445C17.2317 8.39639 15.0853 6.25 12.4372 6.25Z" fill="white"/>
<path fill-rule="evenodd" clip-rule="evenodd" d="M11.089 10.2946C11.5033 10.2946 11.839 10.6303 11.839 11.0446C11.839 11.3718 12.1099 11.6427 12.4372 11.6427C12.8514 11.6427 13.1872 11.9785 13.1872 12.3927C13.1872 12.8069 12.8514 13.1427 12.4372 13.1427C11.2815 13.1427 10.339 12.2003 10.339 11.0446C10.339 10.6303 10.6748 10.2946 11.089 10.2946Z" fill="white"/>
</svg>
