<svg width="24" height="24" viewBox="0 0 24 24" fill="none" xmlns="http://www.w3.org/2000/svg">
<g clip-path="url(#clip0_44_675)">
<path d="M5.31891 14.5034L4.4835 17.6221L1.43011 17.6867C0.517594 15.9942 0 14.0577 0 11.9999C0 10.01 0.483938 8.1335 1.34175 6.4812H1.34241L4.06078 6.97958L5.25159 9.68164C5.00236 10.4082 4.86652 11.1882 4.86652 11.9999C4.86661 12.8808 5.02617 13.7247 5.31891 14.5034Z" fill="#FBBB00"/>
<path d="M23.7904 9.75818C23.9282 10.4841 24.0001 11.2338 24.0001 11.9999C24.0001 12.8591 23.9098 13.6971 23.7377 14.5054C23.1535 17.2562 21.6271 19.6582 19.5126 21.358L19.512 21.3573L16.088 21.1826L15.6035 18.1575C17.0065 17.3347 18.103 16.047 18.6806 14.5054H12.2639V9.75818H18.7742H23.7904Z" fill="#518EF8"/>
<path d="M19.5118 21.3575L19.5125 21.3581C17.456 23.0111 14.8437 24.0001 12 24.0001C7.43007 24.0001 3.4569 21.4458 1.43007 17.6869L5.31887 14.5037C6.33226 17.2083 8.94127 19.1336 12 19.1336C13.3147 19.1336 14.5463 18.7781 15.6032 18.1577L19.5118 21.3575Z" fill="#28B446"/>
<path d="M19.6595 2.76263L15.7721 5.94525C14.6782 5.26153 13.3852 4.86656 12 4.86656C8.87205 4.86656 6.21424 6.88017 5.25161 9.68175L1.34238 6.48131H1.34172C3.33888 2.63077 7.36216 0 12 0C14.9116 0 17.5813 1.03716 19.6595 2.76263Z" fill="#F14336"/>
</g>
<defs>
<clipPath id="clip0_44_675">
<rect width="24" height="24" fill="white"/>
</clipPath>
</defs>
</svg>
