<svg width="24" height="24" viewBox="0 0 24 24" fill="none" xmlns="http://www.w3.org/2000/svg">
<path fill-rule="evenodd" clip-rule="evenodd" d="M11.6316 2.52641C11.8483 2.35789 12.1517 2.35789 12.3684 2.52641L20.4684 8.82641C20.6145 8.94009 20.7 9.11487 20.7 9.30002V19.2C20.7 19.8365 20.4471 20.447 19.9971 20.8971C19.547 21.3472 18.9365 21.6 18.3 21.6H5.7C5.06348 21.6 4.45303 21.3472 4.00294 20.8971C3.55286 20.447 3.3 19.8365 3.3 19.2V9.30002C3.3 9.11487 3.38548 8.94009 3.53163 8.82641L11.6316 2.52641ZM4.5 9.59347V19.2C4.5 19.5183 4.62643 19.8235 4.85147 20.0486C5.07651 20.2736 5.38174 20.4 5.7 20.4H18.3C18.6183 20.4 18.9235 20.2736 19.1485 20.0486C19.3736 19.8235 19.5 19.5183 19.5 19.2V9.59347L12 3.76014L4.5 9.59347Z" fill="white"/>
<path fill-rule="evenodd" clip-rule="evenodd" d="M8.7 12C8.7 11.6687 8.96863 11.4 9.3 11.4H14.7C15.0314 11.4 15.3 11.6687 15.3 12V21C15.3 21.3314 15.0314 21.6 14.7 21.6C14.3686 21.6 14.1 21.3314 14.1 21V12.6H9.9V21C9.9 21.3314 9.63137 21.6 9.3 21.6C8.96863 21.6 8.7 21.3314 8.7 21V12Z" fill="white"/>
</svg>
