<svg width="24" height="24" viewBox="0 0 24 24" fill="none" xmlns="http://www.w3.org/2000/svg">
<path fill-rule="evenodd" clip-rule="evenodd" d="M8.56277 3.25C8.14856 3.25 7.81277 3.58579 7.81277 4V5.53564H3.41991C3.0057 5.53564 2.66991 5.87143 2.66991 6.28564V19.9999C2.66991 20.4141 3.0057 20.7499 3.41991 20.7499H20.5628C20.977 20.7499 21.3128 20.4141 21.3128 19.9999V6.28564C21.3128 5.87143 20.977 5.53564 20.5628 5.53564H16.1699V4C16.1699 3.58579 15.8341 3.25 15.4199 3.25H8.56277ZM15.4096 7.03564C15.413 7.03569 15.4165 7.03571 15.4199 7.03571C15.4234 7.03571 15.4268 7.03569 15.4302 7.03564H19.8128V19.2499H4.16991V7.03564H8.55245C8.55588 7.03569 8.55933 7.03571 8.56277 7.03571C8.56622 7.03571 8.56966 7.03569 8.5731 7.03564H15.4096ZM14.6699 5.53564V4.75H9.31277V5.53564H14.6699Z" fill="white"/>
<path fill-rule="evenodd" clip-rule="evenodd" d="M10.0985 10.2856C10.0985 9.87143 10.4343 9.53564 10.8485 9.53564H13.1342C13.5484 9.53564 13.8842 9.87143 13.8842 10.2856V11.2499H14.8485V11.9999H15.5985V14.2856C15.5985 14.6999 15.2627 15.0356 14.8485 15.0356H13.8842V15.9999C13.8842 16.4141 13.5484 16.7499 13.1342 16.7499H10.8485C10.4343 16.7499 10.0985 16.4141 10.0985 15.9999V15.0356H9.1342C8.71998 15.0356 8.3842 14.6999 8.3842 14.2856V11.9999C8.3842 11.5857 8.71998 11.2499 9.1342 11.2499H10.0985V10.2856ZM14.0985 12.7499H13.1342C12.72 12.7499 12.3842 12.4141 12.3842 11.9999V11.0356H11.5985V11.9999C11.5985 12.4141 11.2627 12.7499 10.8485 12.7499H9.8842V13.5356H10.8485C11.2627 13.5356 11.5985 13.8714 11.5985 14.2856V15.2499H12.3842V14.2856C12.3842 13.8714 12.72 13.5356 13.1342 13.5356H14.0985V12.7499Z" fill="white"/>
</svg>
