<svg width="24" height="24" viewBox="0 0 24 24" fill="none" xmlns="http://www.w3.org/2000/svg">
<path fill-rule="evenodd" clip-rule="evenodd" d="M6.77 8.14545C6.77 5.40057 8.96306 3.25 11.72 3.25C14.4769 3.25 16.67 5.40057 16.67 8.14545V10.6327C16.67 11.0469 16.3342 11.3827 15.92 11.3827H7.52C7.10578 11.3827 6.77 11.0469 6.77 10.6327V8.14545ZM11.72 4.75C9.77294 4.75 8.27 6.24743 8.27 8.14545V9.88273H15.17V8.14545C15.17 6.24743 13.6671 4.75 11.72 4.75Z" fill="white"/>
<path fill-rule="evenodd" clip-rule="evenodd" d="M4.25 11.6327C4.25 10.6662 5.0335 9.88269 6 9.88269H17.44C18.4065 9.88269 19.19 10.6662 19.19 11.6327V18.36C19.19 19.3265 18.4065 20.11 17.44 20.11H6C5.0335 20.11 4.25 19.3265 4.25 18.36V11.6327ZM6 11.3827C5.86193 11.3827 5.75 11.4946 5.75 11.6327V18.36C5.75 18.498 5.86193 18.61 6 18.61H17.44C17.5781 18.61 17.69 18.498 17.69 18.36V11.6327C17.69 11.4946 17.5781 11.3827 17.44 11.3827H6Z" fill="white"/>
</svg>
