<svg width="24" height="24" viewBox="0 0 24 24" fill="none" xmlns="http://www.w3.org/2000/svg">
<path fill-rule="evenodd" clip-rule="evenodd" d="M7.45118 6.26937C8.53158 5.21452 9.99393 4.62439 11.5158 4.62439C13.0377 4.62439 14.5 5.21452 15.5804 6.26937C16.6613 7.3247 17.2713 8.75913 17.2713 10.2579C17.2713 13.1034 17.8948 14.8882 18.4839 15.9427C18.7794 16.4716 19.0697 16.8231 19.2768 17.0365C19.3805 17.1434 19.4638 17.2161 19.5169 17.2593C19.5435 17.2809 19.5625 17.2952 19.5728 17.3026L19.5813 17.3087C19.8004 17.4544 19.8992 17.7262 19.8242 17.979C19.7486 18.2336 19.5146 18.4083 19.249 18.4083H3.78261C3.51699 18.4083 3.28298 18.2336 3.20741 17.979C3.1324 17.7262 3.23118 17.4544 3.4503 17.3087L3.45879 17.3026C3.4691 17.2952 3.48814 17.2809 3.5147 17.2593C3.56781 17.2161 3.65106 17.1434 3.75477 17.0365C3.96189 16.8231 4.2522 16.4716 4.54767 15.9427C5.13676 14.8882 5.76034 13.1034 5.76034 10.2579C5.76034 8.75913 6.37029 7.3247 7.45118 6.26937Z" fill="#0F3759"/>
<path fill-rule="evenodd" clip-rule="evenodd" d="M9.72285 20.648C10.0077 20.4787 10.3759 20.5725 10.5451 20.8573C10.6419 21.0201 10.7818 21.157 10.9522 21.2529C11.1227 21.3488 11.3171 21.3998 11.5158 21.3998C11.7145 21.3998 11.9089 21.3488 12.0794 21.2529C12.2499 21.157 12.3898 21.0201 12.4865 20.8573C12.6557 20.5725 13.0239 20.4787 13.3088 20.648C13.5937 20.8172 13.6874 21.1854 13.5181 21.4703C13.3127 21.816 13.019 22.1012 12.6676 22.2988C12.3164 22.4963 11.9193 22.5998 11.5158 22.5998C11.1124 22.5998 10.7152 22.4963 10.364 22.2988C10.0127 22.1012 9.71891 21.816 9.5135 21.4703C9.34424 21.1854 9.43797 20.8172 9.72285 20.648Z" fill="#0F3759"/>
<circle cx="16.5652" cy="6.56123" r="3.15217" fill="#FF0000" stroke="#0F3759"/>
</svg>
