<svg width="24" height="24" viewBox="0 0 24 24" fill="none" xmlns="http://www.w3.org/2000/svg">
<path fill-rule="evenodd" clip-rule="evenodd" d="M7.8421 3.95319C9.04386 2.82016 10.6666 2.18933 12.3518 2.18933C14.037 2.18933 15.6598 2.82016 16.8616 3.95319C18.0645 5.08734 18.7475 6.6334 18.7475 8.2535C18.7475 11.3464 19.4494 13.2899 20.1157 14.4417C20.45 15.0196 20.7792 15.4049 21.0158 15.6403C21.1342 15.7581 21.2297 15.8387 21.2915 15.8872C21.3224 15.9115 21.3448 15.9278 21.3575 15.9366L21.3688 15.9444L21.3672 15.9434L21.366 15.9427L21.3653 15.9422C21.3665 15.943 21.3677 15.9437 21.3689 15.9445C21.5923 16.0875 21.6954 16.3606 21.6218 16.6159C21.5478 16.8728 21.3127 17.0498 21.0453 17.0498H3.65836C3.39098 17.0498 3.15586 16.8728 3.08182 16.6159C3.00825 16.3606 3.11138 16.0875 3.33482 15.9445M3.33489 15.9444L3.33646 15.9434L3.33764 15.9427L3.33832 15.9422C3.33869 15.942 3.33907 15.9418 3.65836 16.4498C3.97765 16.9578 3.97805 16.9575 3.97847 16.9572L3.97935 16.9567L3.98132 16.9554L3.98604 16.9524L3.99858 16.9442C4.0083 16.9377 4.0207 16.9293 4.0356 16.9189C4.0654 16.8979 4.10521 16.8688 4.15356 16.8308C4.25027 16.7549 4.38113 16.6434 4.53439 16.4908C4.69945 16.3266 4.89011 16.1151 5.09179 15.8498H19.6119C19.8136 16.1151 20.0042 16.3266 20.1693 16.4908C20.3225 16.6434 20.4534 16.7549 20.5501 16.8308C20.5985 16.8688 20.6383 16.8979 20.6681 16.9189C20.683 16.9293 20.6954 16.9377 20.7051 16.9442L20.7176 16.9524L20.7224 16.9554L20.7243 16.9567L20.7252 16.9572C20.7256 16.9575 20.726 16.9578 21.0453 16.4498V15.8498H19.6119C19.4387 15.6219 19.2573 15.3543 19.077 15.0427C18.2945 13.6901 17.5475 11.5354 17.5475 8.2535C17.5475 6.97523 17.0092 5.74162 16.0384 4.82631C15.0664 3.90988 13.7408 3.38933 12.3518 3.38933C10.9628 3.38933 9.63732 3.90988 8.66529 4.82631C7.69446 5.74162 7.15619 6.97523 7.15619 8.2535C7.15619 11.5354 6.40916 13.6901 5.62662 15.0427C5.44635 15.3543 5.265 15.6219 5.09179 15.8498H3.65836V16.4498M3.33489 15.9444L3.34621 15.9366C3.35886 15.9278 3.38131 15.9115 3.4122 15.8872C3.47396 15.8387 3.5695 15.7581 3.68791 15.6403C3.92443 15.4049 4.25364 15.0196 4.58793 14.4417C5.2543 13.2899 5.95619 11.3464 5.95619 8.2535C5.95619 6.6334 6.63914 5.08734 7.8421 3.95319" fill="white"/>
<path fill-rule="evenodd" clip-rule="evenodd" d="M10.3664 19.5815C10.6486 19.4078 11.0181 19.4959 11.1918 19.7781C11.3049 19.962 11.47 20.1189 11.674 20.2296C11.8781 20.3405 12.1119 20.4 12.3519 20.4C12.5918 20.4 12.8257 20.3405 13.0297 20.2296C13.2337 20.1189 13.3988 19.962 13.5119 19.7781C13.6856 19.4959 14.0551 19.4078 14.3373 19.5815C14.6196 19.7551 14.7076 20.1247 14.5339 20.4069C14.3074 20.7751 13.985 21.0764 13.6024 21.2842C13.22 21.4919 12.7888 21.6 12.3519 21.6C11.9149 21.6 11.4837 21.4919 11.1013 21.2842C10.7187 21.0764 10.3963 20.7751 10.1698 20.4069C9.9961 20.1247 10.0841 19.7551 10.3664 19.5815Z" fill="white"/>
</svg>
