<svg width="24" height="24" viewBox="0 0 24 24" fill="none" xmlns="http://www.w3.org/2000/svg">
<path fill-rule="evenodd" clip-rule="evenodd" d="M5.4 19.4667C5.4 19.1353 5.66863 18.8667 6 18.8667H17.7333C18.0647 18.8667 18.3333 19.1353 18.3333 19.4667C18.3333 19.7981 18.0647 20.0667 17.7333 20.0667H6C5.66863 20.0667 5.4 19.7981 5.4 19.4667Z" fill="white"/>
<path fill-rule="evenodd" clip-rule="evenodd" d="M13.5757 5.17574C13.8101 4.94142 14.1899 4.94142 14.4243 5.17574L17.6243 8.37574C17.8586 8.61005 17.8586 8.98995 17.6243 9.22426C17.3899 9.45858 17.0101 9.45858 16.7757 9.22426L13.5757 6.02426C13.3414 5.78995 13.3414 5.41005 13.5757 5.17574Z" fill="white"/>
<path fill-rule="evenodd" clip-rule="evenodd" d="M15.1757 3.57576C15.4101 3.34145 15.79 3.34145 16.0243 3.57576L19.2243 6.77576C19.4586 7.01008 19.4586 7.38997 19.2243 7.62429L9.62426 17.2243L9.2 16.8V17.4H6C5.66863 17.4 5.4 17.1314 5.4 16.8V13.6C5.4 13.4409 5.46321 13.2883 5.57574 13.1758L15.1757 3.57576ZM8.95147 16.2L17.9515 7.20002L15.6 4.84855L6.6 13.8486V16.2H8.95147Z" fill="white"/>
</svg>
