<svg width="24" height="24" viewBox="0 0 24 24" fill="none" xmlns="http://www.w3.org/2000/svg">
<path fill-rule="evenodd" clip-rule="evenodd" d="M5.77778 4.75C5.21015 4.75 4.75 5.21015 4.75 5.77778V18.2222C4.75 18.7898 5.21015 19.25 5.77778 19.25H18.2222C18.7898 19.25 19.25 18.7898 19.25 18.2222V5.77778C19.25 5.21015 18.7898 4.75 18.2222 4.75H5.77778ZM3.25 5.77778C3.25 4.38172 4.38172 3.25 5.77778 3.25H18.2222C19.6183 3.25 20.75 4.38172 20.75 5.77778V18.2222C20.75 19.6183 19.6183 20.75 18.2222 20.75H5.77778C4.38172 20.75 3.25 19.6183 3.25 18.2222V5.77778Z" fill="white"/>
<path fill-rule="evenodd" clip-rule="evenodd" d="M12 7.69446C12.4142 7.69446 12.75 8.03024 12.75 8.44446V15.5556C12.75 15.9698 12.4142 16.3056 12 16.3056C11.5858 16.3056 11.25 15.9698 11.25 15.5556V8.44446C11.25 8.03024 11.5858 7.69446 12 7.69446Z" fill="white"/>
<path fill-rule="evenodd" clip-rule="evenodd" d="M7.69445 12C7.69445 11.5858 8.03023 11.25 8.44445 11.25H15.5556C15.9698 11.25 16.3056 11.5858 16.3056 12C16.3056 12.4142 15.9698 12.75 15.5556 12.75H8.44445C8.03023 12.75 7.69445 12.4142 7.69445 12Z" fill="white"/>
</svg>
