<svg width="24" height="24" viewBox="0 0 24 24" fill="none" xmlns="http://www.w3.org/2000/svg">
<path fill-rule="evenodd" clip-rule="evenodd" d="M8.85714 4.75C6.58907 4.75 4.75 6.58907 4.75 8.85714C4.75 11.1252 6.58907 12.9643 8.85714 12.9643C11.1252 12.9643 12.9643 11.1252 12.9643 8.85714C12.9643 6.58907 11.1252 4.75 8.85714 4.75ZM3.25 8.85714C3.25 5.76064 5.76064 3.25 8.85714 3.25C11.9536 3.25 14.4643 5.76064 14.4643 8.85714C14.4643 11.9536 11.9536 14.4643 8.85714 14.4643C5.76064 14.4643 3.25 11.9536 3.25 8.85714Z" fill="white"/>
<path fill-rule="evenodd" clip-rule="evenodd" d="M16.5715 13.8928C15.092 13.8928 13.8929 15.0919 13.8929 16.5714C13.8929 18.0509 15.092 19.25 16.5715 19.25C18.051 19.25 19.25 18.0509 19.25 16.5714C19.25 15.0919 18.051 13.8928 16.5715 13.8928ZM12.3929 16.5714C12.3929 14.2635 14.2635 12.3928 16.5715 12.3928C18.8794 12.3928 20.75 14.2635 20.75 16.5714C20.75 18.8793 18.8794 20.75 16.5715 20.75C14.2635 20.75 12.3929 18.8793 12.3929 16.5714Z" fill="white"/>
<path fill-rule="evenodd" clip-rule="evenodd" d="M18.2857 7.60718C17.753 7.60718 17.3214 8.03882 17.3214 8.57146C17.3214 9.10411 17.753 9.53575 18.2857 9.53575C18.8183 9.53575 19.25 9.10411 19.25 8.57146C19.25 8.03882 18.8183 7.60718 18.2857 7.60718ZM15.8214 8.57146C15.8214 7.21039 16.9246 6.10718 18.2857 6.10718C19.6468 6.10718 20.75 7.21039 20.75 8.57146C20.75 9.93253 19.6468 11.0357 18.2857 11.0357C16.9246 11.0357 15.8214 9.93253 15.8214 8.57146Z" fill="white"/>
</svg>
