<svg width="24" height="24" viewBox="0 0 24 24" fill="none" xmlns="http://www.w3.org/2000/svg">
<path fill-rule="evenodd" clip-rule="evenodd" d="M7.35 8.84203C7.35 6.22095 9.4068 4.04993 12 4.04993C14.5932 4.04993 16.65 6.22095 16.65 8.84203C16.65 11.4631 14.5932 13.6341 12 13.6341C9.4068 13.6341 7.35 11.4631 7.35 8.84203ZM12 5.54993C10.2854 5.54993 8.85 6.99833 8.85 8.84203C8.85 10.6857 10.2854 12.1341 12 12.1341C13.7146 12.1341 15.15 10.6857 15.15 8.84203C15.15 6.99833 13.7146 5.54993 12 5.54993Z" fill="white"/>
<path fill-rule="evenodd" clip-rule="evenodd" d="M5.01 20.16C5.01 16.1995 8.11446 12.9426 12 12.9426C15.8855 12.9426 18.99 16.1995 18.99 20.16C18.99 20.5742 18.6542 20.91 18.24 20.91C17.8258 20.91 17.49 20.5742 17.49 20.16C17.49 16.9769 15.007 14.4426 12 14.4426C8.99303 14.4426 6.51 16.9769 6.51 20.16C6.51 20.5742 6.17421 20.91 5.76 20.91C5.34579 20.91 5.01 20.5742 5.01 20.16Z" fill="white"/>
</svg>
