<svg width="24" height="24" viewBox="0 0 24 24" fill="none" xmlns="http://www.w3.org/2000/svg">
<path fill-rule="evenodd" clip-rule="evenodd" d="M4.50721 14.9607C5.45148 14.1214 6.70945 13.6667 8 13.6667H16C17.2905 13.6667 18.5485 14.1214 19.4928 14.9607C20.4409 15.8035 21 16.9735 21 18.2223V20.0001C21 20.5524 20.5523 21.0001 20 21.0001C19.4477 21.0001 19 20.5524 19 20.0001V18.2223C19 17.5851 18.7162 16.9464 18.1641 16.4556C17.608 15.9613 16.8312 15.6667 16 15.6667H8C7.16881 15.6667 6.39196 15.9613 5.83594 16.4556C5.28375 16.9464 5 17.5851 5 18.2223V20.0001C5 20.5524 4.55228 21.0001 4 21.0001C3.44772 21.0001 3 20.5524 3 20.0001V18.2223C3 16.9735 3.5591 15.8035 4.50721 14.9607Z" fill="white"/>
<path fill-rule="evenodd" clip-rule="evenodd" d="M11.8919 5C10.4995 5 9.32432 6.1679 9.32432 7.66667C9.32432 9.16543 10.4995 10.3333 11.8919 10.3333C13.2843 10.3333 14.4595 9.16543 14.4595 7.66667C14.4595 6.1679 13.2843 5 11.8919 5ZM7.32432 7.66667C7.32432 5.11534 9.34364 3 11.8919 3C14.4401 3 16.4595 5.11534 16.4595 7.66667C16.4595 10.218 14.4401 12.3333 11.8919 12.3333C9.34364 12.3333 7.32432 10.218 7.32432 7.66667Z" fill="white"/>
</svg>
