<svg width="24" height="24" viewBox="0 0 24 24" fill="none" xmlns="http://www.w3.org/2000/svg">
<path fill-rule="evenodd" clip-rule="evenodd" d="M12.3544 3.61619L11.71 4L11.0657 3.61619C11.2009 3.38912 11.4457 3.25 11.71 3.25C11.9743 3.25 12.2191 3.38912 12.3544 3.61619ZM11.71 15.8366C11.0657 16.2204 11.0656 16.2202 11.0654 16.22L11.0646 16.2186L11.0629 16.2157L11.0579 16.2071L11.0413 16.1785C11.0275 16.1543 11.0082 16.1202 10.9843 16.0765C10.9365 15.9891 10.87 15.8636 10.791 15.7037C10.6332 15.3844 10.4249 14.9266 10.2171 14.3624C9.80318 13.2389 9.38173 11.6686 9.38173 9.9183C9.38173 8.16804 9.80318 6.59773 10.2171 5.47416C10.4249 4.91005 10.6332 4.45221 10.791 4.13288C10.87 3.97305 10.9365 3.84746 10.9843 3.76011C11.0082 3.71642 11.0275 3.68225 11.0413 3.65811L11.0579 3.62946L11.0629 3.62088L11.0646 3.61805L11.0657 3.61619C11.0658 3.616 11.0657 3.61619 11.71 4C12.3544 3.61619 12.3543 3.616 12.3544 3.61619L12.3555 3.61805L12.3572 3.62088L12.3622 3.62946L12.3787 3.65811C12.3925 3.68225 12.4118 3.71642 12.4357 3.76011C12.4835 3.84746 12.5501 3.97305 12.629 4.13288C12.7868 4.45221 12.9951 4.91005 13.2029 5.47416C13.6169 6.59773 14.0383 8.16804 14.0383 9.9183C14.0383 11.6686 13.6169 13.2389 13.2029 14.3624C12.9951 14.9266 12.7868 15.3844 12.629 15.7037C12.5501 15.8636 12.4835 15.9891 12.4357 16.0765C12.4118 16.1202 12.3925 16.1543 12.3787 16.1785L12.3622 16.2071L12.3572 16.2157L12.3555 16.2186L12.3549 16.2196C12.3547 16.2198 12.3544 16.2204 11.71 15.8366ZM11.71 15.8366L11.0654 16.22C11.2007 16.4471 11.4457 16.5866 11.71 16.5866C11.9743 16.5866 12.2196 16.4467 12.3549 16.2196L11.71 15.8366ZM11.71 14.0692C11.7384 13.9965 11.7669 13.9213 11.7954 13.8439C12.1706 12.8255 12.5383 11.4366 12.5383 9.9183C12.5383 8.39998 12.1706 7.01115 11.7954 5.99271C11.7669 5.91527 11.7384 5.84012 11.71 5.76737C11.6817 5.84012 11.6532 5.91527 11.6246 5.99271C11.2494 7.01115 10.8817 8.39998 10.8817 9.9183C10.8817 11.4366 11.2494 12.8255 11.6246 13.8439C11.6532 13.9213 11.6817 13.9965 11.71 14.0692ZM4.6472 10.346L4.50737 11.0828L3.77048 11.2224C3.72429 10.9787 3.80165 10.7278 3.97711 10.5524C4.15258 10.377 4.40344 10.2997 4.6472 10.346ZM5.69228 12.2679C5.96066 12.8657 6.3626 13.5513 6.94504 14.1335C7.52725 14.716 8.21301 15.1181 8.81088 15.3865C8.54245 14.7885 8.14048 14.1029 7.5582 13.5206C6.97591 12.9383 6.29024 12.5363 5.69228 12.2679ZM5.88438 15.1942C6.73603 16.0462 7.7285 16.5705 8.49088 16.8808C8.87492 17.0372 9.20845 17.1424 9.44874 17.2092C9.5691 17.2426 9.66668 17.2666 9.73622 17.2825C9.77101 17.2905 9.79884 17.2966 9.81906 17.3008L9.84363 17.3058L9.85149 17.3073L9.85429 17.3079L9.8554 17.3081C9.85563 17.3081 9.85633 17.3083 9.99596 16.5714L9.8554 17.3081C10.0992 17.3543 10.3509 17.2771 10.5264 17.1016C10.7018 16.9262 10.7791 16.6753 10.7328 16.4316L9.99596 16.5714C10.7328 16.4316 10.7329 16.4318 10.7328 16.4316L10.7324 16.4295L10.7319 16.4267L10.7303 16.4189L10.7253 16.3943C10.7211 16.3741 10.7151 16.3463 10.7071 16.3115C10.6911 16.2419 10.6671 16.1444 10.6336 16.024C10.5668 15.7838 10.4615 15.4503 10.3051 15.0662C9.99473 14.3039 9.47047 13.3115 8.61886 12.4599C7.76724 11.6083 6.77482 11.084 6.01251 10.7736C5.6285 10.6172 5.295 10.5119 5.05473 10.4451C4.93438 10.4117 4.83681 10.3877 4.76728 10.3717C4.73249 10.3637 4.70467 10.3577 4.68445 10.3535L4.65989 10.3484L4.65203 10.3469L4.64924 10.3463L4.6472 10.346C4.64698 10.3459 4.6472 10.346 4.50737 11.0828C3.77048 11.2224 3.77044 11.2222 3.77048 11.2224L3.77087 11.2245L3.77141 11.2273L3.77296 11.2351L3.77798 11.2597C3.7822 11.2799 3.78822 11.3077 3.79621 11.3425C3.8122 11.4121 3.83615 11.5097 3.86959 11.63C3.93635 11.8703 4.0416 12.2038 4.19794 12.5879C4.50829 13.3502 5.03252 14.3426 5.88438 15.1942ZM19.6495 11.2769L18.9126 11.1373L18.7728 10.4004C19.0166 10.3542 19.2674 10.4315 19.4429 10.6069C19.6183 10.7823 19.6957 11.0332 19.6495 11.2769ZM17.5354 15.2489C16.6838 16.1007 15.6914 16.625 14.9291 16.9353C14.5451 17.0917 14.2115 17.1969 13.9713 17.2637C13.8509 17.2971 13.7533 17.3211 13.6838 17.337C13.649 17.345 13.6211 17.3511 13.6009 17.3553L13.5764 17.3603L13.5685 17.3618L13.5657 17.3624L13.5646 17.3626C13.5644 17.3626 13.5637 17.3628 13.424 16.6259C12.6872 16.4861 12.6872 16.4858 12.6873 16.4856L12.6876 16.484L12.6881 16.4812L12.6897 16.4734L12.6947 16.4488C12.6989 16.4286 12.7049 16.4008 12.7129 16.366C12.7289 16.2964 12.7529 16.1989 12.7864 16.0785C12.8532 15.8383 12.9585 15.5048 13.1148 15.1207C13.4253 14.3584 13.9495 13.366 14.8011 12.5144C15.6528 11.6628 16.6452 11.1385 17.4075 10.8281C17.7915 10.6717 18.125 10.5664 18.3653 10.4996C18.4856 10.4662 18.5832 10.4422 18.6527 10.4262C18.6875 10.4182 18.7153 10.4122 18.7355 10.4079L18.7601 10.4029L18.768 10.4014L18.7708 10.4008L18.7728 10.4004C18.773 10.4004 18.7728 10.4004 18.9126 11.1373C19.6495 11.2769 19.6495 11.2767 19.6495 11.2769L19.6491 11.279L19.6486 11.2818L19.647 11.2896L19.642 11.3142C19.6378 11.3344 19.6318 11.3622 19.6238 11.397C19.6078 11.4666 19.5838 11.5642 19.5504 11.6845C19.4836 11.9248 19.3784 12.2583 19.222 12.6424C18.9117 13.4047 18.3873 14.3973 17.5354 15.2489ZM13.424 16.6259L12.6873 16.4856C12.641 16.7294 12.7182 16.9807 12.8936 17.1561C13.069 17.3316 13.3208 17.4088 13.5646 17.3626L13.424 16.6259ZM14.6091 15.441C14.8775 14.843 15.2795 14.1573 15.8618 13.5751C16.4441 12.9928 17.1298 12.5908 17.7277 12.3224C17.4593 12.9202 17.0574 13.6058 16.475 14.188C15.8927 14.7705 15.207 15.1726 14.6091 15.441ZM4.52833 17.6221C5.13067 17.3048 6.00339 16.9642 6.99772 16.9642C7.99206 16.9642 8.86478 17.3048 9.46711 17.6221C9.77241 17.7829 10.0198 17.9438 10.1927 18.066C10.2794 18.1272 10.3481 18.1793 10.3969 18.2174C10.4212 18.2365 10.4407 18.2521 10.4549 18.2638L10.4723 18.2782L10.478 18.283L10.4802 18.2848L10.481 18.2855C10.4812 18.2857 10.4818 18.2861 9.99545 18.8571C10.4818 19.428 10.4816 19.4282 10.4814 19.4284L10.4802 19.4294L10.478 19.4312L10.4723 19.436L10.4549 19.4504C10.4407 19.4621 10.4212 19.4777 10.3969 19.4968C10.3481 19.5349 10.2794 19.587 10.1927 19.6482C10.0198 19.7704 9.77241 19.9313 9.46711 20.0921C8.86478 20.4094 7.99206 20.75 6.99772 20.75C6.00339 20.75 5.13067 20.4094 4.52833 20.0921C4.22303 19.9313 3.97568 19.7704 3.80277 19.6482C3.71605 19.587 3.64731 19.5349 3.59859 19.4968C3.57421 19.4777 3.55479 19.4621 3.54056 19.4504L3.52314 19.436L3.5174 19.4312L3.51528 19.4294L3.51441 19.4287C3.51423 19.4285 3.51367 19.428 4 18.8571C3.51367 18.2861 3.51385 18.286 3.51403 18.2858L3.51528 18.2848L3.5174 18.283L3.52314 18.2782L3.54056 18.2638C3.55479 18.2521 3.57421 18.2365 3.59859 18.2174C3.64731 18.1793 3.71605 18.1272 3.80277 18.066C3.97568 17.9438 4.22303 17.7829 4.52833 17.6221ZM4 18.8571L3.51403 18.2858C3.34673 18.4283 3.25 18.6373 3.25 18.8571C3.25 19.0769 3.34712 19.2862 3.51441 19.4287L4 18.8571ZM5.41135 18.8571C5.86415 19.0723 6.41727 19.25 6.99772 19.25C7.57818 19.25 8.1313 19.0723 8.5841 18.8571C8.1313 18.6419 7.57818 18.4642 6.99772 18.4642C6.41727 18.4642 5.86415 18.6419 5.41135 18.8571ZM9.99545 18.8571L10.4814 19.4284C10.6487 19.2859 10.7454 19.0769 10.7454 18.8571C10.7454 18.6373 10.6483 18.428 10.481 18.2855L9.99545 18.8571ZM13.4245 18.8571L12.9381 19.428C12.7708 19.2855 12.6745 19.0769 12.6745 18.8571C12.6745 18.6373 12.7708 18.4286 12.9381 18.2861L13.4245 18.8571ZM19.4199 18.8571L19.9062 19.428C20.0735 19.2855 20.1699 19.0769 20.1699 18.8571C20.1699 18.6373 20.0735 18.4286 19.9062 18.2861L19.4199 18.8571ZM14.8358 18.8571C15.2886 19.0723 15.8417 19.25 16.4222 19.25C17.0026 19.25 17.5558 19.0723 18.0086 18.8571C17.5558 18.6419 17.0026 18.4642 16.4222 18.4642C15.8417 18.4642 15.2886 18.6419 14.8358 18.8571ZM13.9528 17.6221C14.5551 17.3048 15.4278 16.9642 16.4222 16.9642C17.4165 16.9642 18.2892 17.3048 18.8916 17.6221C19.1969 17.7829 19.4442 17.9438 19.6171 18.066C19.7039 18.1272 19.7726 18.1793 19.8213 18.2174C19.8457 18.2365 19.8651 18.2521 19.8793 18.2638L19.8968 18.2782L19.9025 18.283L19.9046 18.2848L19.9062 18.2861C19.9064 18.2863 19.9062 18.2861 19.4199 18.8571C19.9062 19.428 19.9064 19.4279 19.9062 19.428L19.9046 19.4294L19.9025 19.4312L19.8968 19.436L19.8793 19.4504C19.8651 19.4621 19.8457 19.4777 19.8213 19.4968C19.7726 19.5349 19.7039 19.587 19.6171 19.6482C19.4442 19.7704 19.1969 19.9313 18.8916 20.0921C18.2892 20.4094 17.4165 20.75 16.4222 20.75C15.4278 20.75 14.5551 20.4094 13.9528 20.0921C13.6475 19.9313 13.4001 19.7704 13.2272 19.6482C13.1405 19.587 13.0718 19.5349 13.0231 19.4968C12.9987 19.4777 12.9792 19.4621 12.965 19.4504L12.9476 19.436L12.9419 19.4312L12.9397 19.4294L12.9381 19.428C12.938 19.4279 12.9381 19.428 13.4245 18.8571C12.9381 18.2861 12.938 18.2863 12.9381 18.2861L12.9397 18.2848L12.9419 18.283L12.9476 18.2782L12.965 18.2638C12.9792 18.2521 12.9987 18.2365 13.0231 18.2174C13.0718 18.1793 13.1405 18.1272 13.2272 18.066C13.4001 17.9438 13.6475 17.7829 13.9528 17.6221ZM18.9352 19.4295C18.9355 19.4297 18.9356 19.4298 18.9352 19.4295ZM18.9353 18.2846C18.9357 18.2844 18.9356 18.2844 18.9353 18.2846Z" fill="white"/>
</svg>
